<?xml version="1.0" encoding="UTF-8"?>
<svg id="_Слой_2" data-name="Слой 2" xmlns="http://www.w3.org/2000/svg" viewBox="0 0 1280.16 179.37">
  <g id="Layer_1" data-name="Layer 1">
    <g>
      <path d="M0,135.21c3.69-12.75,6.79-25.7,11.18-38.19,8.75-24.92,21.47-47.63,40.25-66.54,38.99-39.26,90.64-40.67,131.77-3.6,24.95,22.49,39.75,51.12,50.96,82.31,4.6,12.8,.57,21.05-9.2,29.16-.76-1.71-1.48-3.26-2.14-4.83-11.27-26.91-25.11-52.24-46.11-72.96-13.66-13.48-29.32-23.66-48.8-26.33-24.8-3.4-45.82,5.37-64.4,21.05-19.42,16.38-33.1,37.23-45.2,59.23-3.21,5.83-6.34,11.72-9,17.81-1.88,4.3-4.58,6.77-9.3,6.89,0-1.33,0-2.67,0-4Z"/>
      <path d="M1126.25,138.89c-4.77-10.25-8.79-19.7-13.48-28.8-10.59-20.55-23.29-39.62-40.99-54.87-33.41-28.8-72.71-29.05-106.56-.72-19.75,16.53-33.74,37.53-46,59.82-3.61,6.55-6.89,13.29-10.15,20.02-1.59,3.28-4.01,4.61-8.14,4.5,.38-2.51,.59-4.76,1.06-6.95,7.5-34.8,20.35-67.16,43.85-94.49,14.65-17.03,32.18-29.99,54.48-35.09,29.67-6.78,55.67,1.84,78.72,20.46,26.47,21.38,42.69,49.75,53.93,81.32,.89,2.5,1.34,5.21,2.54,7.55,4.46,8.75,1.22,15.68-4.79,22.1-1.45,1.55-2.78,3.2-4.46,5.15Z"/>
      <path d="M326.65,79.97c0-4.25-.22-8.23,.14-12.16,.11-1.13,1.75-2.71,2.97-3.05,16.74-4.64,33.63-5.87,49.98,.94,16.27,6.78,31.88,3.78,48.09-1.04-3.08-18.95-12.58-32.95-29.47-41.58-18.02-9.21-37.41-9.95-57.04-8.4-15.56,1.23-29.89,6.18-43.01,14.69-1.1,.71-2.93,1.4-3.93,.97-4.65-2.03-9.13-4.46-14.38-7.11,10.63-7.17,21.49-11.55,32.98-14.29,31.68-7.56,63.3-8.65,94.49,2.31,17.64,6.2,32.91,16.05,43.81,31.66,18.06,25.87,13.43,56.92-11.39,76.43-14.51,11.4-31.38,17.34-49.36,20.19-28.61,4.53-57.14,3.85-85.2-3.53-8.84-2.33-17.13-6.79-25.67-10.27,.06-.56,.11-1.12,.17-1.68,4.35-2.66,8.65-5.42,13.12-7.88,.82-.45,2.58-.06,3.45,.58,12.11,8.79,25.85,12.78,40.55,13.9,18.35,1.39,36.65,1.53,54.38-4.43,18.59-6.25,31.75-17.84,36.12-37.75,.28-1.29,.47-2.62,.56-3.94,.1-1.47,.02-2.96,.02-4.42-8.21,1.23-16.15,3.2-24.15,3.4-7.52,.19-15.73,.1-22.52-2.63-17.32-6.97-34.33-6.96-51.76-1.56-.77,.24-1.58,.35-2.97,.65Z"/>
      <path d="M884.56,138.29c-1.37,.25-1.85,.43-2.34,.42-30.81-.16-61.64,.13-92.43-.8-8.53-.26-17.55-2.89-25.32-6.6-19.25-9.18-20.19-31.25-2.37-43.11,11.91-7.92,25.56-10.38,39.46-10.86,16.31-.56,32.65-.26,48.97-.33,1.78,0,3.56,0,5.43,0,0-7.08,.43-13.56-.14-19.96-.44-5.06-4.53-8.12-9.13-8.72-10.35-1.34-20.79-2.18-31.22-2.59-5.09-.2-10.32,.65-15.35,1.68-7.79,1.6-14.27,4.99-14.51,14.52h-29.22c-.5-7.97,2.68-13.73,8.91-18,8.2-5.61,17.56-7.91,27.19-9.1,22.92-2.84,45.85-2.95,68.63,1.37,4.19,.79,8.34,2.38,12.17,4.28,6.58,3.26,10.24,8.86,10.85,16.24,.3,3.65,.4,7.32,.4,10.98,.04,21.66,.02,43.31,.02,64.97,0,1.79,0,3.58,0,5.6Zm-28.4-48.04c-18.6,0-36.56-.36-54.49,.23-5.05,.17-10.34,2.48-14.91,4.94-5.74,3.09-7.92,8.75-7.3,15.27,.61,6.48,4.19,10.97,10.27,12.79,4.87,1.46,10.05,2.5,15.11,2.62,14.8,.36,29.6,.16,44.41,.18,2.27,0,4.55,0,6.92,0v-36.03Z"/>
      <path d="M1153.12,138.87V35.17h27.86v41.91c2.48,0,4.39-.03,6.31,0,18.13,.36,36.32,.03,54.37,1.41,8.37,.64,17.07,3.49,24.6,7.34,16.74,8.55,18.57,29.19,4.36,41.63-8.26,7.23-18.38,10.32-28.99,10.65-21.79,.67-43.61,.57-65.42,.75-7.62,.06-15.23,.01-23.09,.01Zm28.37-12.84c17.09,0,33.74,.16,50.38-.12,3.54-.06,7.2-1.36,10.56-2.7,5.01-1.98,7.82-5.99,8.67-11.35,1.71-10.76-2.93-18.32-14.1-20.34-8.44-1.52-17.21-1.46-25.84-1.69-9.78-.26-19.58-.06-29.67-.06v36.26Z"/>
      <path d="M674.88,116.46c7.02-9.84,13.58-19.04,20.13-28.24,11.59-16.28,23.28-32.49,34.68-48.89,2.35-3.39,4.78-5.03,8.96-4.63,3.94,.37,7.94,.08,12.75,.08-1.13,1.88-1.77,3.15-2.58,4.29-32.37,45.63-64.77,91.24-97.09,136.91-1.72,2.43-3.48,3.56-6.52,3.38-4.57-.27-9.18-.07-14.76-.07,5.93-8.38,11.27-15.94,16.62-23.49,3.08-4.35,5.9-8.92,9.34-12.96,2.83-3.32,2.23-5.73,.03-9.06-20.49-31.16-40.81-62.42-61.18-93.66-.96-1.48-1.86-2.99-3.28-5.28,10.08,0,19.2-.17,28.3,.18,1.42,.05,3.05,2.26,4.06,3.82,15.84,24.25,31.59,48.56,47.37,72.86,.9,1.39,1.83,2.76,3.17,4.78Z"/>
      <path d="M538.04,138.69h-28.28V47.43h-39.28v-12.32h105.14v11.89h-37.58v91.69Z"/>
      <path d="M256.81,40.98c-4.25-9.09-8.08-17.03-11.68-25.07-2.45-5.48-1.46-9.86,2.51-13.06,4.32-3.49,12.65-3.74,17.45-.52,4.06,2.72,5.71,7.64,3.51,12.84-3.54,8.38-7.53,16.57-11.79,25.81Z"/>
    </g>
  </g>
</svg>