<?xml version="1.0" encoding="UTF-8"?>
<svg id="_Слой_2" data-name="Слой 2" xmlns="http://www.w3.org/2000/svg" viewBox="0 0 620.88 135.93">
  <defs>
    <style>
      .cls-1 {
        fill: #0069fe;
      }
    </style>
  </defs>
  <g id="Layer_1" data-name="Layer 1">
    <g>
      <path class="cls-1" d="M436.61,14.04c-14.67-8.04-30.47-12.24-47.08-13.6-1.21-.1-2.47,.07-3.64-.44h-14.07c-.11,.31-.39,.23-.61,.24-3.22,.21-6.44,.51-9.64,.94-13.72,1.83-26.81,5.7-39.05,12.22-11.42,6.09-21.43,13.92-28.7,24.77-10.88,16.22-12.85,33.41-4.69,51.37,5.04,11.1,13.22,19.63,23.07,26.61,14.39,10.21,30.57,15.85,47.9,18.4,12.99,1.91,26,1.83,38.99-.18,13.27-2.06,25.9-6.05,37.68-12.55,10.38-5.73,19.45-13.02,26.45-22.69,6-8.29,9.73-17.47,10.42-27.73,.78-11.56-2.29-22.15-8.54-31.82-7.17-11.09-17.02-19.24-28.49-25.53Zm1.57,65.63c-3.75,5.58-8.85,9.71-14.55,13.12-9.24,5.52-19.3,8.68-29.89,10.3-4.88,.75-9.79,1.03-14.45,1.12-14.3-.11-27.8-2.66-40.44-8.95-6.9-3.43-13.13-7.79-17.9-13.96-2.94-3.81-5.02-8.01-5.14-12.94-.12-5.22,2.01-9.65,5.1-13.68,4.69-6.13,10.85-10.45,17.66-13.88,10.64-5.36,21.99-8.07,33.84-8.83,12.38-.8,24.52,.51,36.31,4.42,9.61,3.19,18.43,7.78,25.61,15.11,2.85,2.91,5.16,6.2,6.62,10.04,2.49,6.56,.99,12.54-2.76,18.13Z"/>
      <path class="cls-1" d="M121.41,26.54C110.05,12.01,95.21,3.37,76.93,.66c-1.62-.24-3.27-.19-4.86-.66h-9.7c-.12,.3-.39,.22-.62,.24-4.31,.38-8.57,1.1-12.71,2.35C27.82,9.02,12.89,22.47,4.44,42.98,1.8,49.38,.06,56.06,.05,63.07c0,2.67,.09,5.34-.02,8-.22,5.44,.8,10.7,2.31,15.86,10.28,34.99,45.76,55.54,81.22,47.09,33.78-8.05,56.3-41.26,51.26-75.61-1.73-11.78-6.08-22.49-13.42-31.88Zm-53.76,77.72c-19.93,.02-36.21-16.27-36.24-36.25-.02-19.97,16.23-36.24,36.2-36.26,20.07-.01,36.26,16.18,36.26,36.28,0,20-16.21,36.2-36.22,36.22Z"/>
      <path class="cls-1" d="M620.64,16.36c-1.87-11.2-14.47-16.93-23.94-10.81-5.12,3.31-7.45,8.16-7.44,14.25,.03,16.94,.01,33.87,.01,50.81,0,.43,0,.86,0,1.3-.53,0-.74-.34-1.01-.56-24.91-19.83-49.82-39.66-74.72-59.49-3.22-2.57-6.43-5.16-9.68-7.69-2.67-2.08-6.33-.98-7.27,2.13-.23,.75-.19,1.52-.19,2.29,0,35.73,0,71.46,0,107.19,0,.85,.01,1.7,.06,2.54,.58,9.45,10.04,16.44,19.24,14.22,7.3-1.76,12.27-8.01,12.28-15.59,.02-17.18,0-34.36,.01-51.53,0-.45-.13-.93,.16-1.4,.23,.16,.39,.27,.55,.39,25.06,19.96,50.13,39.92,75.19,59.88,3.16,2.52,6.3,5.07,9.49,7.54,2.83,2.19,6.54,.89,7.29-2.5,.07-.02,.14-.04,.22-.05V16.98c-.3-.12-.21-.4-.24-.62Z"/>
      <path class="cls-1" d="M259.1,101.18c-17.22-.02-34.43,0-51.65,0h-1.53c.08-.61,.41-.87,.64-1.18,20.06-26.57,40.12-53.13,60.18-79.69,2.46-3.26,4.94-6.49,7.36-9.78,2.02-2.74,.9-6.33-2.2-7.27-.79-.24-1.6-.18-2.41-.18-32.33,0-64.67,0-97,0-.69,0-1.38-.01-2.06,.05-6,.52-10.49,3.45-13.12,8.83-2.6,5.33-2.33,10.71,1.02,15.65,3.42,5.04,8.42,7.16,14.45,7.15,13.94-.03,27.89-.01,41.83,0,.42,0,.88-.15,1.28,.15-.03,.46-.38,.72-.61,1.03-16.67,22.08-33.35,44.17-50.02,66.25-5.77,7.64-11.53,15.28-17.31,22.92-.86,1.13-1.47,2.32-1.27,3.79,.35,2.58,2.19,4.02,5.16,4.02,35.44,0,70.89,0,106.33,0,1.13,0,2.26-.08,3.38-.24,9.01-1.29,15.05-9.77,13.32-18.69-1.46-7.51-7.93-12.8-15.76-12.8Z"/>
    </g>
  </g>
</svg>