<?xml version="1.0" encoding="UTF-8"?>
<svg id="_Слой_2" data-name="Слой 2" xmlns="http://www.w3.org/2000/svg" xmlns:xlink="http://www.w3.org/1999/xlink" viewBox="0 0 652.36 267.15">
  <defs>
    <style>
      .cls-1 {
        fill: url(#linear-gradient);
      }
    </style>
    <linearGradient id="linear-gradient" x1="0" y1="133.57" x2="652.36" y2="133.57" gradientUnits="userSpaceOnUse">
      <stop offset="0" stop-color="#ec1862"/>
      <stop offset="1" stop-color="#f1773f"/>
    </linearGradient>
  </defs>
  <g id="Layer_1" data-name="Layer 1">
    <g>
      <g>
        <path d="M166.04,262.35h-39.11v-54.24H0v-19.19L122.13,4.06h43.91V173.05h25.09v35.05h-25.09v54.24ZM130.99,54.24L50.55,174.53h78.96v-57.19l2.21-63.1h-.74Z"/>
        <path d="M330.61,0c13.28,0,25.7,2.03,37.27,6.09,11.56,4.06,21.64,9.91,30.26,17.53,8.61,7.63,15.43,16.97,20.48,28.04,5.04,11.07,7.56,23.49,7.56,37.27v89.29c0,14.02-2.53,26.51-7.56,37.45-5.04,10.95-11.87,20.24-20.48,27.86-8.61,7.63-18.7,13.47-30.26,17.53-11.57,4.06-23.98,6.09-37.27,6.09s-25.83-2.03-37.64-6.09c-11.81-4.06-22.02-9.9-30.63-17.53-8.61-7.62-15.44-16.91-20.48-27.86-5.04-10.94-7.56-23.43-7.56-37.45V88.93c0-13.77,2.52-26.2,7.56-37.27,5.04-11.07,11.87-20.42,20.48-28.04,8.61-7.62,18.82-13.47,30.63-17.53,11.81-4.06,24.35-6.09,37.64-6.09Zm0,229.14c13.28,0,24.72-3.14,34.32-9.41,9.59-6.27,15.74-15.68,18.45-28.23,.74-3.69,1.35-7.56,1.84-11.62,.49-4.06,.74-8.3,.74-12.73V100.36c0-4.43-.25-8.67-.74-12.73-.5-4.06-1.11-7.93-1.84-11.62-2.71-12.55-8.86-22.08-18.45-28.6-9.59-6.52-21.03-9.78-34.32-9.78s-24.79,3.26-34.5,9.78c-9.72,6.52-15.93,16.05-18.63,28.6-.74,3.69-1.36,7.56-1.85,11.62-.5,4.06-.74,8.3-.74,12.73v66.79c0,4.43,.24,8.67,.74,12.73,.49,4.06,1.11,7.93,1.85,11.62,2.7,12.55,8.91,21.95,18.63,28.23,9.71,6.27,21.22,9.41,34.5,9.41Z"/>
        <path d="M627.27,262.35h-39.11v-54.24h-126.93v-19.19L583.36,4.06h43.91V173.05h25.09v35.05h-25.09v54.24Zm-35.05-208.11l-80.44,120.29h78.96v-57.19l2.21-63.1h-.74Z"/>
      </g>
      <g>
        <path class="cls-1" d="M166.04,262.35h-39.11v-54.24H0v-19.19L122.13,4.06h43.91V173.05h25.09v35.05h-25.09v54.24ZM130.99,54.24L50.55,174.53h78.96v-57.19l2.21-63.1h-.74Z"/>
        <path class="cls-1" d="M330.61,0c13.28,0,25.7,2.03,37.27,6.09,11.56,4.06,21.64,9.91,30.26,17.53,8.61,7.63,15.43,16.97,20.48,28.04,5.04,11.07,7.56,23.49,7.56,37.27v89.29c0,14.02-2.53,26.51-7.56,37.45-5.04,10.95-11.87,20.24-20.48,27.86-8.61,7.63-18.7,13.47-30.26,17.53-11.57,4.06-23.98,6.09-37.27,6.09s-25.83-2.03-37.64-6.09c-11.81-4.06-22.02-9.9-30.63-17.53-8.61-7.62-15.44-16.91-20.48-27.86-5.04-10.94-7.56-23.43-7.56-37.45V88.93c0-13.77,2.52-26.2,7.56-37.27,5.04-11.07,11.87-20.42,20.48-28.04,8.61-7.62,18.82-13.47,30.63-17.53,11.81-4.06,24.35-6.09,37.64-6.09Zm0,229.14c13.28,0,24.72-3.14,34.32-9.41,9.59-6.27,15.74-15.68,18.45-28.23,.74-3.69,1.35-7.56,1.84-11.62,.49-4.06,.74-8.3,.74-12.73V100.36c0-4.43-.25-8.67-.74-12.73-.5-4.06-1.11-7.93-1.84-11.62-2.71-12.55-8.86-22.08-18.45-28.6-9.59-6.52-21.03-9.78-34.32-9.78s-24.79,3.26-34.5,9.78c-9.72,6.52-15.93,16.05-18.63,28.6-.74,3.69-1.36,7.56-1.85,11.62-.5,4.06-.74,8.3-.74,12.73v66.79c0,4.43,.24,8.67,.74,12.73,.49,4.06,1.11,7.93,1.85,11.62,2.7,12.55,8.91,21.95,18.63,28.23,9.71,6.27,21.22,9.41,34.5,9.41Z"/>
        <path class="cls-1" d="M627.27,262.35h-39.11v-54.24h-126.93v-19.19L583.36,4.06h43.91V173.05h25.09v35.05h-25.09v54.24Zm-35.05-208.11l-80.44,120.29h78.96v-57.19l2.21-63.1h-.74Z"/>
      </g>
    </g>
  </g>
</svg>