<?xml version="1.0" encoding="UTF-8"?>
<svg id="_Слой_2" data-name="Слой 2" xmlns="http://www.w3.org/2000/svg" viewBox="0 0 30.06 35">
  <defs>
    <style>
      .cls-1 {
        fill: #fff;
      }
    </style>
  </defs>
  <g id="Layer_1" data-name="Layer 1">
    <g>
      <rect class="cls-1" x="11.31" y="7.38" width="7.45" height="2"/>
      <path class="cls-1" d="M9.38,13c.45,0,.82-.37,.82-.82V6.46c0-2.66,2.17-4.83,4.83-4.83s4.83,2.17,4.83,4.83v5.72c0,.45,.37,.82,.82,.82s.82-.37,.82-.82V6.46c0-3.56-2.9-6.46-6.46-6.46s-6.46,2.9-6.46,6.46v5.72c0,.45,.37,.82,.82,.82Z"/>
      <polygon class="cls-1" points="22.6 7.38 22.6 9.37 28.06 9.37 28.06 13.03 28.06 33 13.12 33 2 33 2 9.37 7.46 9.37 7.46 7.38 0 7.38 0 35 13.12 35 30.06 35 30.06 34 30.06 33 30.06 13.03 30.06 7.38 22.6 7.38"/>
    </g>
  </g>
</svg>