<?xml version="1.0" encoding="UTF-8"?>
<svg id="_Слой_2" data-name="Слой 2" xmlns="http://www.w3.org/2000/svg" viewBox="0 0 34.08 34.08">
  <defs>
    <style>
      .cls-1 {
        fill: #fff;
      }

      .cls-2 {
        fill: none;
        stroke: #fff;
        stroke-linecap: round;
        stroke-linejoin: round;
        stroke-width: 2.83px;
      }
    </style>
  </defs>
  <g id="Layer_1" data-name="Layer 1">
    <g>
      <path class="cls-1" d="M21.15,26.07c-2.04,0-4.07,0-6.11,0-.71,0-1.16-.41-1.15-1.02,0-.6,.45-1,1.13-1,4.06,0,8.12,0,12.17,0,.6,0,.95,.24,1.11,.74,.13,.42-.03,.86-.45,1.12-.15,.09-.36,.14-.54,.14-2.05,0-4.1,0-6.16,0h0Z"/>
      <path class="cls-1" d="M21.08,8.02c2.05,0,4.11,0,6.16,0,.43,0,.75,.16,.97,.53,.2,.34,.18,.68-.03,1.01-.23,.36-.58,.49-.99,.49-.94,0-1.87,0-2.81,0-3.1,0-6.21,0-9.31,0-.63,0-1.04-.28-1.16-.75-.17-.68,.31-1.26,1.07-1.27,2.04,0,4.07,0,6.11,0Z"/>
      <path class="cls-1" d="M21.12,16.05c2.05,0,4.11,0,6.16,0,.55,0,.92,.28,1.03,.78,.1,.47-.08,.83-.48,1.07-.16,.09-.37,.13-.55,.13-4.11,0-8.22,0-12.33,0-.66,0-1.07-.39-1.07-.99,0-.6,.41-.98,1.07-.98,2.05,0,4.11,0,6.16,0Z"/>
      <path class="cls-1" d="M12.43,25.05c-.03,1.9-1.42,3.27-3.2,3.35-1.9,.09-3.47-1.45-3.48-3.33-.01-1.84,1.51-3.37,3.36-3.37,1.82,0,3.32,1.51,3.33,3.34Zm-3.29,1.98c1.05,.02,1.92-.84,1.94-1.93,.02-1.12-.84-2.03-1.94-2.05-1.11-.02-2.03,.85-2.05,1.95-.02,1.16,.83,2,2.05,2.03Z"/>
      <path class="cls-1" d="M12.43,9.02c0,1.85-1.52,3.37-3.36,3.36-1.82-.01-3.33-1.53-3.33-3.34,0-1.85,1.52-3.36,3.36-3.35,1.82,0,3.32,1.51,3.32,3.34Zm-3.31-1.99c-1.12-.01-2.02,.86-2.03,1.96-.01,1.11,.87,2.02,1.96,2.04,1.11,.02,2.01-.86,2.02-1.97,.01-1.13-.85-2.02-1.95-2.03Z"/>
      <path class="cls-1" d="M9.09,20.37c-1.84,0-3.34-1.48-3.35-3.32,0-1.85,1.51-3.36,3.37-3.35,1.84,.01,3.32,1.5,3.32,3.35,0,1.84-1.49,3.32-3.34,3.32Zm1.99-3.3c0-1.11-.86-2.02-1.96-2.04-1.08-.02-2.01,.89-2.03,1.98-.01,1.12,.91,2.05,2.01,2.04,1.08-.01,1.96-.9,1.97-1.98Z"/>
      <path class="cls-1" d="M8.03,25.04c0-.6,.49-1.06,1.09-1.04,.57,.02,1.04,.49,1.04,1.06,0,.58-.5,1.08-1.08,1.08-.59,0-1.06-.5-1.05-1.09Z"/>
    </g>
    <rect class="cls-2" x="1.42" y="1.42" width="31.25" height="31.25"/>
  </g>
</svg>