<?xml version="1.0" encoding="UTF-8"?>
<svg id="_Слой_2" data-name="Слой 2" xmlns="http://www.w3.org/2000/svg" viewBox="0 0 63.42 63.42">
  <defs>
    <style>
      .cls-1 {
        fill: #fff;
      }
    </style>
  </defs>
  <g id="Layer_1" data-name="Layer 1">
    <path class="cls-1" d="M61.48,52.04l-20.33-20.33L61.48,11.38c2.6-2.6,2.6-6.82,0-9.43-2.6-2.6-6.82-2.6-9.42,0L31.71,22.28,11.38,1.95c-2.58-2.58-6.78-2.6-9.43,.01h0C.69,3.22,0,4.89,0,6.67s.69,3.45,1.95,4.71L22.28,31.71,1.95,52.04c-1.26,1.26-1.95,2.93-1.95,4.71s.69,3.45,1.9,4.66l.06,.06c1.3,1.3,3,1.95,4.71,1.95s3.41-.65,4.71-1.95l20.33-20.33,20.33,20.33c1.3,1.3,3,1.95,4.71,1.95s3.42-.65,4.72-1.96c2.6-2.6,2.6-6.82,0-9.42Z"/>
  </g>
</svg>