<?xml version="1.0" encoding="UTF-8"?>
<svg id="_Слой_2" data-name="Слой 2" xmlns="http://www.w3.org/2000/svg" xmlns:xlink="http://www.w3.org/1999/xlink" viewBox="0 0 362.63 362.63">
  <defs>
    <style>
      .cls-1 {
        fill: url(#linear-gradient-2);
      }

      .cls-2 {
        fill: url(#linear-gradient);
      }
    </style>
    <linearGradient id="linear-gradient" x1="0" y1="181.32" x2="362.63" y2="181.32" gradientUnits="userSpaceOnUse">
      <stop offset="0" stop-color="#ec1862"/>
      <stop offset="1" stop-color="#f1773f"/>
    </linearGradient>
    <linearGradient id="linear-gradient-2" x1="157.89" y1="180.34" x2="204.75" y2="180.34" xlink:href="#linear-gradient"/>
  </defs>
  <g id="Layer_1" data-name="Layer 1">
    <g>
      <path class="cls-2" d="M181.32,362.63C81.34,362.63,0,281.29,0,181.32S81.34,0,181.32,0s181.32,81.34,181.32,181.32-81.34,181.32-181.32,181.32Zm0-329.63c-81.78,0-148.32,66.53-148.32,148.32s66.53,148.32,148.32,148.32,148.32-66.53,148.32-148.32S263.1,33,181.32,33Z"/>
      <path class="cls-1" d="M157.89,280.37c0-12.84,9.93-22.11,23.43-22.11,14.3,0,23.43,9.27,23.43,22.11s-9.13,22.11-23.43,22.11-23.43-9.63-23.43-22.11Zm9.93-50.99l-5.56-171.17h38.12l-5.56,171.17h-27Z"/>
    </g>
  </g>
</svg>