<?xml version="1.0" encoding="UTF-8"?>
<svg id="_Слой_2" data-name="Слой 2" xmlns="http://www.w3.org/2000/svg" viewBox="0 0 20.74 23.23">
  <defs>
    <style>
      .cls-1 {
        fill: #fff;
      }
    </style>
  </defs>
  <g id="Layer_1" data-name="Layer 1">
    <g>
      <path class="cls-1" d="M10.37,11.83c3.27,0,5.92-2.65,5.92-5.92S13.64,0,10.37,0,4.45,2.65,4.45,5.92s2.65,5.92,5.92,5.92Zm0-9.83c2.16,0,3.92,1.76,3.92,3.92s-1.76,3.92-3.92,3.92-3.92-1.76-3.92-3.92,1.76-3.92,3.92-3.92Z"/>
      <path class="cls-1" d="M10.37,12.86C4.64,12.86,0,17.51,0,23.23H2c0-4.62,3.75-8.37,8.37-8.37s8.37,3.75,8.37,8.37h2c0-5.73-4.64-10.37-10.37-10.37Z"/>
    </g>
  </g>
</svg>