<?xml version="1.0" encoding="UTF-8"?>
<svg id="_Слой_2" data-name="Слой 2" xmlns="http://www.w3.org/2000/svg" viewBox="0 0 1216.38 1004.56">
  <defs>
    <style>
      .cls-1, .cls-2, .cls-3 {
        fill: #fff;
      }

      .cls-2, .cls-4, .cls-5, .cls-6, .cls-7, .cls-8, .cls-3 {
        fill-rule: evenodd;
      }

      .cls-4 {
        fill: #f48120;
      }

      .cls-4, .cls-5, .cls-3 {
        isolation: isolate;
      }

      .cls-5, .cls-7, .cls-9 {
        fill: #231f20;
      }

      .cls-6 {
        fill: #ffca05;
      }

      .cls-8 {
        fill: #ffcb31;
      }
    </style>
  </defs>
  <g id="Layer_1" data-name="Layer 1">
    <g>
      <g>
        <g>
          <g>
            <g>
              <path class="cls-9" d="M386.19,967.88l-73.94-4.94,3.6-65.06-98.69,52.63-11.85-210.29,76.8-5.51,2.32,91.21,98.42-87.37,3.34,229.33Z"/>
              <path class="cls-9" d="M402.72,985.29l-107.61-7.19,2.89-52.27-95.66,51.03-14.18-251.72,109.77-7.88,1.86,73.26,98.8-87.71,4.12,282.48h0Zm-73.35-37.52l40.29,2.69-2.57-176.17-98.04,87.03-2.79-109.16-43.82,3.13,9.52,168.86,101.72-54.25-4.32,77.87h0Z"/>
            </g>
            <g>
              <path class="cls-9" d="M386.19,967.88l-73.94-4.94,3.6-65.06-98.69,52.63-11.85-210.29,76.8-5.51,2.32,91.21,98.42-87.37,3.34,229.33Z"/>
              <path class="cls-9" d="M402.72,985.29l-107.61-7.19,2.89-52.27-95.66,51.03-14.18-251.72,109.77-7.88,1.86,73.26,98.8-87.71,4.12,282.48h0Zm-73.35-37.52l40.29,2.69-2.57-176.17-98.04,87.03-2.79-109.16-43.82,3.13,9.52,168.86,101.72-54.25-4.32,77.87h0Z"/>
            </g>
          </g>
          <g>
            <g>
              <path class="cls-9" d="M386.19,967.88l-73.94-4.94,3.6-65.06-98.69,52.63-11.85-210.29,76.8-5.51,2.32,91.21,98.42-87.37,3.34,229.33Z"/>
              <path class="cls-9" d="M402.72,985.29l-107.61-7.19,2.89-52.27-95.66,51.03-14.18-251.72,109.77-7.88,1.86,73.26,98.8-87.71,4.12,282.48h0Zm-73.35-37.52l40.29,2.69-2.57-176.17-98.04,87.03-2.79-109.16-43.82,3.13,9.52,168.86,101.72-54.25-4.32,77.87h0Z"/>
            </g>
            <g>
              <path class="cls-9" d="M386.19,967.88l-73.94-4.94,3.6-65.06-98.69,52.63-11.85-210.29,76.8-5.51,2.32,91.21,98.42-87.37,3.34,229.33Z"/>
              <path class="cls-9" d="M402.72,985.29l-107.61-7.19,2.89-52.27-95.66,51.03-14.18-251.72,109.77-7.88,1.86,73.26,98.8-87.71,4.12,282.48h0Zm-73.35-37.52l40.29,2.69-2.57-176.17-98.04,87.03-2.79-109.16-43.82,3.13,9.52,168.86,101.72-54.25-4.32,77.87h0Z"/>
            </g>
          </g>
        </g>
        <g>
          <path class="cls-1" d="M386.19,967.88l-73.94-4.94,3.6-65.06-98.69,52.63-11.85-210.29,76.8-5.51,2.32,91.21,98.42-87.37,3.34,229.33Z"/>
          <path class="cls-1" d="M386.19,967.88l-73.94-4.94,3.6-65.06-98.69,52.63-11.85-210.29,76.8-5.51,2.32,91.21,98.42-87.37,3.34,229.33Z"/>
        </g>
        <g>
          <path class="cls-1" d="M386.19,967.88l-73.94-4.94,3.6-65.06-98.69,52.63-11.85-210.29,76.8-5.51,2.32,91.21,98.42-87.37,3.34,229.33Z"/>
          <path class="cls-1" d="M386.19,967.88l-73.94-4.94,3.6-65.06-98.69,52.63-11.85-210.29,76.8-5.51,2.32,91.21,98.42-87.37,3.34,229.33Z"/>
        </g>
        <g>
          <path class="cls-1" d="M386.19,967.88l-73.94-4.94,3.6-65.06-98.69,52.63-11.85-210.29,76.8-5.51,2.32,91.21,98.42-87.37,3.34,229.33Z"/>
          <path class="cls-1" d="M386.19,967.88l-73.94-4.94,3.6-65.06-98.69,52.63-11.85-210.29,76.8-5.51,2.32,91.21,98.42-87.37,3.34,229.33Z"/>
        </g>
        <g>
          <path class="cls-1" d="M386.19,967.88l-73.94-4.94,3.6-65.06-98.69,52.63-11.85-210.29,76.8-5.51,2.32,91.21,98.42-87.37,3.34,229.33Z"/>
          <path class="cls-1" d="M386.19,967.88l-73.94-4.94,3.6-65.06-98.69,52.63-11.85-210.29,76.8-5.51,2.32,91.21,98.42-87.37,3.34,229.33Z"/>
        </g>
      </g>
      <g>
        <g>
          <g>
            <g>
              <path class="cls-9" d="M443.61,727l68.38,80.38,56.42-71.5,74.76,180.78-58.54,58.68-33.69-87.34-30.8,67.98-46.57-66.23-19.75,83.19-62.55-37.17,52.35-208.78Z"/>
              <path class="cls-9" d="M578.46,1004.56l-28.72-74.49-26.53,58.56-42.15-59.95-16.51,69.55-92.01-54.65,62.98-251.21,76.01,89.34,61.31-77.7,89.51,216.44-83.89,84.11h0Zm-168.47-76.58l33.11,19.68,22.98-96.82,50.99,72.5,35.08-77.44,38.64,100.22,33.18-33.28-60-145.08-51.52,65.28-60.76-71.42-41.72,166.37h0Z"/>
            </g>
            <g>
              <path class="cls-9" d="M443.61,727l68.38,80.38,56.42-71.5,74.76,180.78-58.54,58.68-33.69-87.34-30.8,67.98-46.57-66.23-19.75,83.19-62.55-37.17,52.35-208.78Z"/>
              <path class="cls-9" d="M578.46,1004.56l-28.72-74.49-26.53,58.56-42.15-59.95-16.51,69.55-92.01-54.65,62.98-251.21,76.01,89.34,61.31-77.7,89.51,216.44-83.89,84.11h0Zm-168.47-76.58l33.11,19.68,22.98-96.82,50.99,72.5,35.08-77.44,38.64,100.22,33.18-33.28-60-145.08-51.52,65.28-60.76-71.42-41.72,166.37h0Z"/>
            </g>
          </g>
          <g>
            <g>
              <path class="cls-9" d="M443.61,727l68.38,80.38,56.42-71.5,74.76,180.78-58.54,58.68-33.69-87.34-30.8,67.98-46.57-66.23-19.75,83.19-62.55-37.17,52.35-208.78Z"/>
              <path class="cls-9" d="M578.46,1004.56l-28.72-74.49-26.53,58.56-42.15-59.95-16.51,69.55-92.01-54.65,62.98-251.21,76.01,89.34,61.31-77.7,89.51,216.44-83.89,84.11h0Zm-168.47-76.58l33.11,19.68,22.98-96.82,50.99,72.5,35.08-77.44,38.64,100.22,33.18-33.28-60-145.08-51.52,65.28-60.76-71.42-41.72,166.37h0Z"/>
            </g>
            <g>
              <path class="cls-9" d="M443.61,727l68.38,80.38,56.42-71.5,74.76,180.78-58.54,58.68-33.69-87.34-30.8,67.98-46.57-66.23-19.75,83.19-62.55-37.17,52.35-208.78Z"/>
              <path class="cls-9" d="M578.46,1004.56l-28.72-74.49-26.53,58.56-42.15-59.95-16.51,69.55-92.01-54.65,62.98-251.21,76.01,89.34,61.31-77.7,89.51,216.44-83.89,84.11h0Zm-168.47-76.58l33.11,19.68,22.98-96.82,50.99,72.5,35.08-77.44,38.64,100.22,33.18-33.28-60-145.08-51.52,65.28-60.76-71.42-41.72,166.37h0Z"/>
            </g>
          </g>
        </g>
        <g>
          <path class="cls-1" d="M443.61,727l68.38,80.38,56.42-71.5,74.76,180.78-58.54,58.68-33.69-87.34-30.8,67.98-46.57-66.23-19.75,83.19-62.55-37.17,52.35-208.78Z"/>
          <path class="cls-1" d="M443.61,727l68.38,80.38,56.42-71.5,74.76,180.78-58.54,58.68-33.69-87.34-30.8,67.98-46.57-66.23-19.75,83.19-62.55-37.17,52.35-208.78Z"/>
        </g>
        <g>
          <path class="cls-1" d="M443.61,727l68.38,80.38,56.42-71.5,74.76,180.78-58.54,58.68-33.69-87.34-30.8,67.98-46.57-66.23-19.75,83.19-62.55-37.17,52.35-208.78Z"/>
          <path class="cls-1" d="M443.61,727l68.38,80.38,56.42-71.5,74.76,180.78-58.54,58.68-33.69-87.34-30.8,67.98-46.57-66.23-19.75,83.19-62.55-37.17,52.35-208.78Z"/>
        </g>
        <g>
          <path class="cls-1" d="M443.61,727l68.38,80.38,56.42-71.5,74.76,180.78-58.54,58.68-33.69-87.34-30.8,67.98-46.57-66.23-19.75,83.19-62.55-37.17,52.35-208.78Z"/>
          <path class="cls-1" d="M443.61,727l68.38,80.38,56.42-71.5,74.76,180.78-58.54,58.68-33.69-87.34-30.8,67.98-46.57-66.23-19.75,83.19-62.55-37.17,52.35-208.78Z"/>
        </g>
        <g>
          <path class="cls-1" d="M443.61,727l68.38,80.38,56.42-71.5,74.76,180.78-58.54,58.68-33.69-87.34-30.8,67.98-46.57-66.23-19.75,83.19-62.55-37.17,52.35-208.78Z"/>
          <path class="cls-1" d="M443.61,727l68.38,80.38,56.42-71.5,74.76,180.78-58.54,58.68-33.69-87.34-30.8,67.98-46.57-66.23-19.75,83.19-62.55-37.17,52.35-208.78Z"/>
        </g>
      </g>
      <g>
        <g>
          <g>
            <g>
              <path class="cls-9" d="M824.62,884.91c-.59-9.01-3.93-18.15-10.05-27.43-6.1-9.27-15.16-17.61-27.34-23.32-12.55-5.89-16.86-5.78-36.09-7.57-19.2-1.8-34.09,2.11-34.09,2.11l1.02-28.97,89.76-6.85-21.93-57.51s-60.75,.7-76.44,2.37c-15.72,1.62-35.71,4.95-59.92,9.9l1.8,215.27c23.01,2.76,42.87,4.18,59.5,4.29,16.68,.09,30.26-.51,40.72-1.81,10.49-1.28,18.78-3.2,25.14-4.81,11.86-3.03,24.69-12.4,32.96-27.98,3.56-6.7,7.9-13.52,11.08-21.78,3.17-8.27,4.46-16.9,3.86-25.91Zm-73.41,13.37c-2.35,2.65-6.13,4.92-11.37,6.73-5.24,1.84-12.6,2.3-22.03,1.39l-3.34-28.94c8.24-4.25,14.99-6.6,20.23-7.18,5.23-.52,9.3-.07,12.23,1.38,2.93,1.49,5.02,3.44,6.3,5.94,1.3,2.46,2.09,4.64,2.33,6.48,.24,1.81,.36,2.86,.36,3.03-.85,4.79-2.42,8.5-4.72,11.16Z"/>
              <path class="cls-9" d="M714.23,983.46h-3.47c-17.33-.12-37.95-1.6-61.34-4.4l-14.23-1.7-2.01-242.97,13.11-2.69c25.26-5.17,45.37-8.49,61.5-10.15,16.21-1.73,75.41-2.42,77.93-2.45l11.34-.13,33.74,88.49-60.94,4.64c8.19,1.08,14.54,2.78,24.27,7.32,14.1,6.61,25.86,16.7,34.03,29.13,7.66,11.61,11.92,23.49,12.7,35.28,.75,11.32-.92,22.37-4.91,32.8-2.78,7.2-6.16,13.25-9.15,18.59-.95,1.7-1.88,3.36-2.77,5.01-9.77,18.41-25.56,31.57-43.3,36.09-6.57,1.69-15.63,3.81-27.19,5.2-10.35,1.29-23.57,1.94-39.3,1.94h0Zm-46.74-35.14c16.33,1.63,30.91,2.51,43.47,2.59l3.26,.02c14.39,0,26.29-.57,35.35-1.68,9.75-1.19,17.46-3.01,23.12-4.45,8.75-2.24,17.19-9.65,22.61-19.85,1-1.87,2.04-3.72,3.1-5.62,2.7-4.82,5.24-9.36,7.17-14.37,2.35-6.09,3.27-12.29,2.83-18.97-.39-6.12-2.9-12.68-7.42-19.57-4.87-7.42-12.04-13.48-20.67-17.53-8.77-4.11-10.99-4.3-25.5-5.64l-5.17-.47c-2.86-.27-5.83-.41-8.78-.41-11.46,0-19.65,2.04-19.74,2.07l-21.02,5.35,2.22-65.17,82.54-6.3-10.12-26.53c-20.64,.33-53.5,1.06-63.55,2.12-12.08,1.24-27.24,3.61-45.25,7.07l1.56,187.34h0Zm59.01-25.19c-3.17,0-6.61-.18-10.23-.54l-13.1-1.25-6.17-53.21,10.02-5.15c10.05-5.17,18.52-8.07,25.91-8.9,2.11-.2,3.96-.3,5.72-.3,5.89,0,11.13,1.12,15.54,3.3,6.1,3.09,10.61,7.45,13.49,13,2.17,4.16,3.49,8.01,4.01,11.75,.51,3.7,.51,4.6,.51,5.26l-.25,2.83c-1.36,7.65-4.16,14.01-8.41,18.91-4.45,5.07-10.42,8.78-18.38,11.53-5.24,1.84-11.36,2.75-18.66,2.75h0Zm5.51-35.6l.3,2.63c1.02-.17,1.72-.36,2.15-.51,3.12-1.09,4.33-1.98,4.57-2.19-.01-.03,.16-.36,.38-1.11h0c-.7-.03-1.91,0-3.07,.11-.66,.09-2.05,.31-4.33,1.08h0Z"/>
            </g>
            <g>
              <path class="cls-9" d="M824.62,884.91c-.59-9.01-3.93-18.15-10.05-27.43-6.1-9.27-15.16-17.61-27.34-23.32-12.55-5.89-16.86-5.78-36.09-7.57-19.2-1.8-34.09,2.11-34.09,2.11l1.02-28.97,89.76-6.85-21.93-57.51s-60.75,.7-76.44,2.37c-15.72,1.62-35.71,4.95-59.92,9.9l1.8,215.27c23.01,2.76,42.87,4.18,59.5,4.29,16.68,.09,30.26-.51,40.72-1.81,10.49-1.28,18.78-3.2,25.14-4.81,11.86-3.03,24.69-12.4,32.96-27.98,3.56-6.7,7.9-13.52,11.08-21.78,3.17-8.27,4.46-16.9,3.86-25.91Zm-73.41,13.37c-2.35,2.65-6.13,4.92-11.37,6.73-5.24,1.84-12.6,2.3-22.03,1.39l-3.34-28.94c8.24-4.25,14.99-6.6,20.23-7.18,5.23-.52,9.3-.07,12.23,1.38,2.93,1.49,5.02,3.44,6.3,5.94,1.3,2.46,2.09,4.64,2.33,6.48,.24,1.81,.36,2.86,.36,3.03-.85,4.79-2.42,8.5-4.72,11.16Z"/>
              <path class="cls-9" d="M714.23,983.46h-3.47c-17.33-.12-37.95-1.6-61.34-4.4l-14.23-1.7-2.01-242.97,13.11-2.69c25.26-5.17,45.37-8.49,61.5-10.15,16.21-1.73,75.41-2.42,77.93-2.45l11.34-.13,33.74,88.49-60.94,4.64c8.19,1.08,14.54,2.78,24.27,7.32,14.1,6.61,25.86,16.7,34.03,29.13,7.66,11.61,11.92,23.49,12.7,35.28,.75,11.32-.92,22.37-4.91,32.8-2.78,7.2-6.16,13.25-9.15,18.59-.95,1.7-1.88,3.36-2.77,5.01-9.77,18.41-25.56,31.57-43.3,36.09-6.57,1.69-15.63,3.81-27.19,5.2-10.35,1.29-23.57,1.94-39.3,1.94h0Zm-46.74-35.14c16.33,1.63,30.91,2.51,43.47,2.59l3.26,.02c14.39,0,26.29-.57,35.35-1.68,9.75-1.19,17.46-3.01,23.12-4.45,8.75-2.24,17.19-9.65,22.61-19.85,1-1.87,2.04-3.72,3.1-5.62,2.7-4.82,5.24-9.36,7.17-14.37,2.35-6.09,3.27-12.29,2.83-18.97-.39-6.12-2.9-12.68-7.42-19.57-4.87-7.42-12.04-13.48-20.67-17.53-8.77-4.11-10.99-4.3-25.5-5.64l-5.17-.47c-2.86-.27-5.83-.41-8.78-.41-11.46,0-19.65,2.04-19.74,2.07l-21.02,5.35,2.22-65.17,82.54-6.3-10.12-26.53c-20.64,.33-53.5,1.06-63.55,2.12-12.08,1.24-27.24,3.61-45.25,7.07l1.56,187.34h0Zm59.01-25.19c-3.17,0-6.61-.18-10.23-.54l-13.1-1.25-6.17-53.21,10.02-5.15c10.05-5.17,18.52-8.07,25.91-8.9,2.11-.2,3.96-.3,5.72-.3,5.89,0,11.13,1.12,15.54,3.3,6.1,3.09,10.61,7.45,13.49,13,2.17,4.16,3.49,8.01,4.01,11.75,.51,3.7,.51,4.6,.51,5.26l-.25,2.83c-1.36,7.65-4.16,14.01-8.41,18.91-4.45,5.07-10.42,8.78-18.38,11.53-5.24,1.84-11.36,2.75-18.66,2.75h0Zm5.51-35.6l.3,2.63c1.02-.17,1.72-.36,2.15-.51,3.12-1.09,4.33-1.98,4.57-2.19-.01-.03,.16-.36,.38-1.11h0c-.7-.03-1.91,0-3.07,.11-.66,.09-2.05,.31-4.33,1.08h0Z"/>
            </g>
          </g>
          <g>
            <g>
              <path class="cls-9" d="M824.62,884.91c-.59-9.01-3.93-18.15-10.05-27.43-6.1-9.27-15.16-17.61-27.34-23.32-12.55-5.89-16.86-5.78-36.09-7.57-19.2-1.8-34.09,2.11-34.09,2.11l1.02-28.97,89.76-6.85-21.93-57.51s-60.75,.7-76.44,2.37c-15.72,1.62-35.71,4.95-59.92,9.9l1.8,215.27c23.01,2.76,42.87,4.18,59.5,4.29,16.68,.09,30.26-.51,40.72-1.81,10.49-1.28,18.78-3.2,25.14-4.81,11.86-3.03,24.69-12.4,32.96-27.98,3.56-6.7,7.9-13.52,11.08-21.78,3.17-8.27,4.46-16.9,3.86-25.91Zm-73.41,13.37c-2.35,2.65-6.13,4.92-11.37,6.73-5.24,1.84-12.6,2.3-22.03,1.39l-3.34-28.94c8.24-4.25,14.99-6.6,20.23-7.18,5.23-.52,9.3-.07,12.23,1.38,2.93,1.49,5.02,3.44,6.3,5.94,1.3,2.46,2.09,4.64,2.33,6.48,.24,1.81,.36,2.86,.36,3.03-.85,4.79-2.42,8.5-4.72,11.16Z"/>
              <path class="cls-9" d="M714.23,983.46h-3.47c-17.33-.12-37.95-1.6-61.34-4.4l-14.23-1.7-2.01-242.97,13.11-2.69c25.26-5.17,45.37-8.49,61.5-10.15,16.21-1.73,75.41-2.42,77.93-2.45l11.34-.13,33.74,88.49-60.94,4.64c8.19,1.08,14.54,2.78,24.27,7.32,14.1,6.61,25.86,16.7,34.03,29.13,7.66,11.61,11.92,23.49,12.7,35.28,.75,11.32-.92,22.37-4.91,32.8-2.78,7.2-6.16,13.25-9.15,18.59-.95,1.7-1.88,3.36-2.77,5.01-9.77,18.41-25.56,31.57-43.3,36.09-6.57,1.69-15.63,3.81-27.19,5.2-10.35,1.29-23.57,1.94-39.3,1.94h0Zm-46.74-35.14c16.33,1.63,30.91,2.51,43.47,2.59l3.26,.02c14.39,0,26.29-.57,35.35-1.68,9.75-1.19,17.46-3.01,23.12-4.45,8.75-2.24,17.19-9.65,22.61-19.85,1-1.87,2.04-3.72,3.1-5.62,2.7-4.82,5.24-9.36,7.17-14.37,2.35-6.09,3.27-12.29,2.83-18.97-.39-6.12-2.9-12.68-7.42-19.57-4.87-7.42-12.04-13.48-20.67-17.53-8.77-4.11-10.99-4.3-25.5-5.64l-5.17-.47c-2.86-.27-5.83-.41-8.78-.41-11.46,0-19.65,2.04-19.74,2.07l-21.02,5.35,2.22-65.17,82.54-6.3-10.12-26.53c-20.64,.33-53.5,1.06-63.55,2.12-12.08,1.24-27.24,3.61-45.25,7.07l1.56,187.34h0Zm59.01-25.19c-3.17,0-6.61-.18-10.23-.54l-13.1-1.25-6.17-53.21,10.02-5.15c10.05-5.17,18.52-8.07,25.91-8.9,2.11-.2,3.96-.3,5.72-.3,5.89,0,11.13,1.12,15.54,3.3,6.1,3.09,10.61,7.45,13.49,13,2.17,4.16,3.49,8.01,4.01,11.75,.51,3.7,.51,4.6,.51,5.26l-.25,2.83c-1.36,7.65-4.16,14.01-8.41,18.91-4.45,5.07-10.42,8.78-18.38,11.53-5.24,1.84-11.36,2.75-18.66,2.75h0Zm5.51-35.6l.3,2.63c1.02-.17,1.72-.36,2.15-.51,3.12-1.09,4.33-1.98,4.57-2.19-.01-.03,.16-.36,.38-1.11h0c-.7-.03-1.91,0-3.07,.11-.66,.09-2.05,.31-4.33,1.08h0Z"/>
            </g>
            <g>
              <path class="cls-9" d="M824.62,884.91c-.59-9.01-3.93-18.15-10.05-27.43-6.1-9.27-15.16-17.61-27.34-23.32-12.55-5.89-16.86-5.78-36.09-7.57-19.2-1.8-34.09,2.11-34.09,2.11l1.02-28.97,89.76-6.85-21.93-57.51s-60.75,.7-76.44,2.37c-15.72,1.62-35.71,4.95-59.92,9.9l1.8,215.27c23.01,2.76,42.87,4.18,59.5,4.29,16.68,.09,30.26-.51,40.72-1.81,10.49-1.28,18.78-3.2,25.14-4.81,11.86-3.03,24.69-12.4,32.96-27.98,3.56-6.7,7.9-13.52,11.08-21.78,3.17-8.27,4.46-16.9,3.86-25.91Zm-73.41,13.37c-2.35,2.65-6.13,4.92-11.37,6.73-5.24,1.84-12.6,2.3-22.03,1.39l-3.34-28.94c8.24-4.25,14.99-6.6,20.23-7.18,5.23-.52,9.3-.07,12.23,1.38,2.93,1.49,5.02,3.44,6.3,5.94,1.3,2.46,2.09,4.64,2.33,6.48,.24,1.81,.36,2.86,.36,3.03-.85,4.79-2.42,8.5-4.72,11.16Z"/>
              <path class="cls-9" d="M714.23,983.46h-3.47c-17.33-.12-37.95-1.6-61.34-4.4l-14.23-1.7-2.01-242.97,13.11-2.69c25.26-5.17,45.37-8.49,61.5-10.15,16.21-1.73,75.41-2.42,77.93-2.45l11.34-.13,33.74,88.49-60.94,4.64c8.19,1.08,14.54,2.78,24.27,7.32,14.1,6.61,25.86,16.7,34.03,29.13,7.66,11.61,11.92,23.49,12.7,35.28,.75,11.32-.92,22.37-4.91,32.8-2.78,7.2-6.16,13.25-9.15,18.59-.95,1.7-1.88,3.36-2.77,5.01-9.77,18.41-25.56,31.57-43.3,36.09-6.57,1.69-15.63,3.81-27.19,5.2-10.35,1.29-23.57,1.94-39.3,1.94h0Zm-46.74-35.14c16.33,1.63,30.91,2.51,43.47,2.59l3.26,.02c14.39,0,26.29-.57,35.35-1.68,9.75-1.19,17.46-3.01,23.12-4.45,8.75-2.24,17.19-9.65,22.61-19.85,1-1.87,2.04-3.72,3.1-5.62,2.7-4.82,5.24-9.36,7.17-14.37,2.35-6.09,3.27-12.29,2.83-18.97-.39-6.12-2.9-12.68-7.42-19.57-4.87-7.42-12.04-13.48-20.67-17.53-8.77-4.11-10.99-4.3-25.5-5.64l-5.17-.47c-2.86-.27-5.83-.41-8.78-.41-11.46,0-19.65,2.04-19.74,2.07l-21.02,5.35,2.22-65.17,82.54-6.3-10.12-26.53c-20.64,.33-53.5,1.06-63.55,2.12-12.08,1.24-27.24,3.61-45.25,7.07l1.56,187.34h0Zm59.01-25.19c-3.17,0-6.61-.18-10.23-.54l-13.1-1.25-6.17-53.21,10.02-5.15c10.05-5.17,18.52-8.07,25.91-8.9,2.11-.2,3.96-.3,5.72-.3,5.89,0,11.13,1.12,15.54,3.3,6.1,3.09,10.61,7.45,13.49,13,2.17,4.16,3.49,8.01,4.01,11.75,.51,3.7,.51,4.6,.51,5.26l-.25,2.83c-1.36,7.65-4.16,14.01-8.41,18.91-4.45,5.07-10.42,8.78-18.38,11.53-5.24,1.84-11.36,2.75-18.66,2.75h0Zm5.51-35.6l.3,2.63c1.02-.17,1.72-.36,2.15-.51,3.12-1.09,4.33-1.98,4.57-2.19-.01-.03,.16-.36,.38-1.11h0c-.7-.03-1.91,0-3.07,.11-.66,.09-2.05,.31-4.33,1.08h0Z"/>
            </g>
          </g>
        </g>
        <g>
          <path class="cls-1" d="M824.62,884.91c-.59-9.01-3.93-18.15-10.05-27.43-6.1-9.27-15.16-17.61-27.34-23.32-12.55-5.89-16.86-5.78-36.09-7.57-19.2-1.8-34.09,2.11-34.09,2.11l1.02-28.97,89.76-6.85-21.93-57.51s-60.75,.7-76.44,2.37c-15.72,1.62-35.71,4.95-59.92,9.9l1.8,215.27c23.01,2.76,42.87,4.18,59.5,4.29,16.68,.09,30.26-.51,40.72-1.81,10.49-1.28,18.78-3.2,25.14-4.81,11.86-3.03,24.69-12.4,32.96-27.98,3.56-6.7,7.9-13.52,11.08-21.78,3.17-8.27,4.46-16.9,3.86-25.91Zm-73.41,13.37c-2.35,2.65-6.13,4.92-11.37,6.73-5.24,1.84-12.6,2.3-22.03,1.39l-3.34-28.94c8.24-4.25,14.99-6.6,20.23-7.18,5.23-.52,9.3-.07,12.23,1.38,2.93,1.49,5.02,3.44,6.3,5.94,1.3,2.46,2.09,4.64,2.33,6.48,.24,1.81,.36,2.86,.36,3.03-.85,4.79-2.42,8.5-4.72,11.16Z"/>
          <path class="cls-1" d="M824.62,884.91c-.59-9.01-3.93-18.15-10.05-27.43-6.1-9.27-15.16-17.61-27.34-23.32-12.55-5.89-16.86-5.78-36.09-7.57-19.2-1.8-34.09,2.11-34.09,2.11l1.02-28.97,89.76-6.85-21.93-57.51s-60.75,.7-76.44,2.37c-15.72,1.62-35.71,4.95-59.92,9.9l1.8,215.27c23.01,2.76,42.87,4.18,59.5,4.29,16.68,.09,30.26-.51,40.72-1.81,10.49-1.28,18.78-3.2,25.14-4.81,11.86-3.03,24.69-12.4,32.96-27.98,3.56-6.7,7.9-13.52,11.08-21.78,3.17-8.27,4.46-16.9,3.86-25.91Zm-73.41,13.37c-2.35,2.65-6.13,4.92-11.37,6.73-5.24,1.84-12.6,2.3-22.03,1.39l-3.34-28.94c8.24-4.25,14.99-6.6,20.23-7.18,5.23-.52,9.3-.07,12.23,1.38,2.93,1.49,5.02,3.44,6.3,5.94,1.3,2.46,2.09,4.64,2.33,6.48,.24,1.81,.36,2.86,.36,3.03-.85,4.79-2.42,8.5-4.72,11.16Z"/>
        </g>
        <g>
          <path class="cls-1" d="M824.62,884.91c-.59-9.01-3.93-18.15-10.05-27.43-6.1-9.27-15.16-17.61-27.34-23.32-12.55-5.89-16.86-5.78-36.09-7.57-19.2-1.8-34.09,2.11-34.09,2.11l1.02-28.97,89.76-6.85-21.93-57.51s-60.75,.7-76.44,2.37c-15.72,1.62-35.71,4.95-59.92,9.9l1.8,215.27c23.01,2.76,42.87,4.18,59.5,4.29,16.68,.09,30.26-.51,40.72-1.81,10.49-1.28,18.78-3.2,25.14-4.81,11.86-3.03,24.69-12.4,32.96-27.98,3.56-6.7,7.9-13.52,11.08-21.78,3.17-8.27,4.46-16.9,3.86-25.91Zm-73.41,13.37c-2.35,2.65-6.13,4.92-11.37,6.73-5.24,1.84-12.6,2.3-22.03,1.39l-3.34-28.94c8.24-4.25,14.99-6.6,20.23-7.18,5.23-.52,9.3-.07,12.23,1.38,2.93,1.49,5.02,3.44,6.3,5.94,1.3,2.46,2.09,4.64,2.33,6.48,.24,1.81,.36,2.86,.36,3.03-.85,4.79-2.42,8.5-4.72,11.16Z"/>
          <path class="cls-1" d="M824.62,884.91c-.59-9.01-3.93-18.15-10.05-27.43-6.1-9.27-15.16-17.61-27.34-23.32-12.55-5.89-16.86-5.78-36.09-7.57-19.2-1.8-34.09,2.11-34.09,2.11l1.02-28.97,89.76-6.85-21.93-57.51s-60.75,.7-76.44,2.37c-15.72,1.62-35.71,4.95-59.92,9.9l1.8,215.27c23.01,2.76,42.87,4.18,59.5,4.29,16.68,.09,30.26-.51,40.72-1.81,10.49-1.28,18.78-3.2,25.14-4.81,11.86-3.03,24.69-12.4,32.96-27.98,3.56-6.7,7.9-13.52,11.08-21.78,3.17-8.27,4.46-16.9,3.86-25.91Zm-73.41,13.37c-2.35,2.65-6.13,4.92-11.37,6.73-5.24,1.84-12.6,2.3-22.03,1.39l-3.34-28.94c8.24-4.25,14.99-6.6,20.23-7.18,5.23-.52,9.3-.07,12.23,1.38,2.93,1.49,5.02,3.44,6.3,5.94,1.3,2.46,2.09,4.64,2.33,6.48,.24,1.81,.36,2.86,.36,3.03-.85,4.79-2.42,8.5-4.72,11.16Z"/>
        </g>
        <g>
          <path class="cls-1" d="M824.62,884.91c-.59-9.01-3.93-18.15-10.05-27.43-6.1-9.27-15.16-17.61-27.34-23.32-12.55-5.89-16.86-5.78-36.09-7.57-19.2-1.8-34.09,2.11-34.09,2.11l1.02-28.97,89.76-6.85-21.93-57.51s-60.75,.7-76.44,2.37c-15.72,1.62-35.71,4.95-59.92,9.9l1.8,215.27c23.01,2.76,42.87,4.18,59.5,4.29,16.68,.09,30.26-.51,40.72-1.81,10.49-1.28,18.78-3.2,25.14-4.81,11.86-3.03,24.69-12.4,32.96-27.98,3.56-6.7,7.9-13.52,11.08-21.78,3.17-8.27,4.46-16.9,3.86-25.91Zm-73.41,13.37c-2.35,2.65-6.13,4.92-11.37,6.73-5.24,1.84-12.6,2.3-22.03,1.39l-3.34-28.94c8.24-4.25,14.99-6.6,20.23-7.18,5.23-.52,9.3-.07,12.23,1.38,2.93,1.49,5.02,3.44,6.3,5.94,1.3,2.46,2.09,4.64,2.33,6.48,.24,1.81,.36,2.86,.36,3.03-.85,4.79-2.42,8.5-4.72,11.16Z"/>
          <path class="cls-1" d="M824.62,884.91c-.59-9.01-3.93-18.15-10.05-27.43-6.1-9.27-15.16-17.61-27.34-23.32-12.55-5.89-16.86-5.78-36.09-7.57-19.2-1.8-34.09,2.11-34.09,2.11l1.02-28.97,89.76-6.85-21.93-57.51s-60.75,.7-76.44,2.37c-15.72,1.62-35.71,4.95-59.92,9.9l1.8,215.27c23.01,2.76,42.87,4.18,59.5,4.29,16.68,.09,30.26-.51,40.72-1.81,10.49-1.28,18.78-3.2,25.14-4.81,11.86-3.03,24.69-12.4,32.96-27.98,3.56-6.7,7.9-13.52,11.08-21.78,3.17-8.27,4.46-16.9,3.86-25.91Zm-73.41,13.37c-2.35,2.65-6.13,4.92-11.37,6.73-5.24,1.84-12.6,2.3-22.03,1.39l-3.34-28.94c8.24-4.25,14.99-6.6,20.23-7.18,5.23-.52,9.3-.07,12.23,1.38,2.93,1.49,5.02,3.44,6.3,5.94,1.3,2.46,2.09,4.64,2.33,6.48,.24,1.81,.36,2.86,.36,3.03-.85,4.79-2.42,8.5-4.72,11.16Z"/>
        </g>
        <g>
          <path class="cls-1" d="M824.62,884.91c-.59-9.01-3.93-18.15-10.05-27.43-6.1-9.27-15.16-17.61-27.34-23.32-12.55-5.89-16.86-5.78-36.09-7.57-19.2-1.8-34.09,2.11-34.09,2.11l1.02-28.97,89.76-6.85-21.93-57.51s-60.75,.7-76.44,2.37c-15.72,1.62-35.71,4.95-59.92,9.9l1.8,215.27c23.01,2.76,42.87,4.18,59.5,4.29,16.68,.09,30.26-.51,40.72-1.81,10.49-1.28,18.78-3.2,25.14-4.81,11.86-3.03,24.69-12.4,32.96-27.98,3.56-6.7,7.9-13.52,11.08-21.78,3.17-8.27,4.46-16.9,3.86-25.91Zm-73.41,13.37c-2.35,2.65-6.13,4.92-11.37,6.73-5.24,1.84-12.6,2.3-22.03,1.39l-3.34-28.94c8.24-4.25,14.99-6.6,20.23-7.18,5.23-.52,9.3-.07,12.23,1.38,2.93,1.49,5.02,3.44,6.3,5.94,1.3,2.46,2.09,4.64,2.33,6.48,.24,1.81,.36,2.86,.36,3.03-.85,4.79-2.42,8.5-4.72,11.16Z"/>
          <path class="cls-1" d="M824.62,884.91c-.59-9.01-3.93-18.15-10.05-27.43-6.1-9.27-15.16-17.61-27.34-23.32-12.55-5.89-16.86-5.78-36.09-7.57-19.2-1.8-34.09,2.11-34.09,2.11l1.02-28.97,89.76-6.85-21.93-57.51s-60.75,.7-76.44,2.37c-15.72,1.62-35.71,4.95-59.92,9.9l1.8,215.27c23.01,2.76,42.87,4.18,59.5,4.29,16.68,.09,30.26-.51,40.72-1.81,10.49-1.28,18.78-3.2,25.14-4.81,11.86-3.03,24.69-12.4,32.96-27.98,3.56-6.7,7.9-13.52,11.08-21.78,3.17-8.27,4.46-16.9,3.86-25.91Zm-73.41,13.37c-2.35,2.65-6.13,4.92-11.37,6.73-5.24,1.84-12.6,2.3-22.03,1.39l-3.34-28.94c8.24-4.25,14.99-6.6,20.23-7.18,5.23-.52,9.3-.07,12.23,1.38,2.93,1.49,5.02,3.44,6.3,5.94,1.3,2.46,2.09,4.64,2.33,6.48,.24,1.81,.36,2.86,.36,3.03-.85,4.79-2.42,8.5-4.72,11.16Z"/>
        </g>
      </g>
      <g>
        <g>
          <g>
            <path class="cls-9" d="M930.62,726.69l130.13,211.68-80.9,32.81-21.68-38.59-54.1,1.94-10.56,41.32-77.56-27.01,114.67-222.15Zm-13.15,164l30.67-5.79-12.86-37.49-17.81,43.28Z"/>
            <path class="cls-9" d="M904.9,997.07l-111.99-39.05,136.49-264.4,155.29,252.61-112.02,45.43-23.81-42.44-32.03,1.13-11.92,46.72h0Zm-65.89-57.42l43.13,15.03,9.2-35.96,76.2-2.75,19.48,34.76,49.81-20.21-104.96-170.75-92.85,179.87h0Zm52.05-27.4l45.59-110.98,32.97,96.15-78.56,14.84h0Z"/>
          </g>
          <g>
            <path class="cls-9" d="M930.62,726.69l130.13,211.68-80.9,32.81-21.68-38.59-54.1,1.94-10.56,41.32-77.56-27.01,114.67-222.15Zm-13.15,164l30.67-5.79-12.86-37.49-17.81,43.28Z"/>
            <path class="cls-9" d="M904.9,997.07l-111.99-39.05,136.49-264.4,155.29,252.61-112.02,45.43-23.81-42.44-32.03,1.13-11.92,46.72h0Zm-65.89-57.42l43.13,15.03,9.2-35.96,76.2-2.75,19.48,34.76,49.81-20.21-104.96-170.75-92.85,179.87h0Zm52.05-27.4l45.59-110.98,32.97,96.15-78.56,14.84h0Z"/>
          </g>
        </g>
        <g>
          <g>
            <path class="cls-9" d="M930.62,726.69l130.13,211.68-80.9,32.81-21.68-38.59-54.1,1.94-10.56,41.32-77.56-27.01,114.67-222.15Zm-13.15,164l30.67-5.79-12.86-37.49-17.81,43.28Z"/>
            <path class="cls-9" d="M904.9,997.07l-111.99-39.05,136.49-264.4,155.29,252.61-112.02,45.43-23.81-42.44-32.03,1.13-11.92,46.72h0Zm-65.89-57.42l43.13,15.03,9.2-35.96,76.2-2.75,19.48,34.76,49.81-20.21-104.96-170.75-92.85,179.87h0Zm52.05-27.4l45.59-110.98,32.97,96.15-78.56,14.84h0Z"/>
          </g>
          <g>
            <path class="cls-9" d="M930.62,726.69l130.13,211.68-80.9,32.81-21.68-38.59-54.1,1.94-10.56,41.32-77.56-27.01,114.67-222.15Zm-13.15,164l30.67-5.79-12.86-37.49-17.81,43.28Z"/>
            <path class="cls-9" d="M904.9,997.07l-111.99-39.05,136.49-264.4,155.29,252.61-112.02,45.43-23.81-42.44-32.03,1.13-11.92,46.72h0Zm-65.89-57.42l43.13,15.03,9.2-35.96,76.2-2.75,19.48,34.76,49.81-20.21-104.96-170.75-92.85,179.87h0Zm52.05-27.4l45.59-110.98,32.97,96.15-78.56,14.84h0Z"/>
          </g>
        </g>
        <g>
          <path class="cls-1" d="M930.62,726.69l130.13,211.68-80.9,32.81-21.68-38.59-54.1,1.94-10.56,41.32-77.56-27.01,114.67-222.15Zm-13.15,164l30.67-5.79-12.86-37.49-17.81,43.28Z"/>
          <path class="cls-1" d="M930.62,726.69l130.13,211.68-80.9,32.81-21.68-38.59-54.1,1.94-10.56,41.32-77.56-27.01,114.67-222.15Zm-13.15,164l30.67-5.79-12.86-37.49-17.81,43.28Z"/>
        </g>
        <g>
          <path class="cls-1" d="M930.62,726.69l130.13,211.68-80.9,32.81-21.68-38.59-54.1,1.94-10.56,41.32-77.56-27.01,114.67-222.15Zm-13.15,164l30.67-5.79-12.86-37.49-17.81,43.28Z"/>
          <path class="cls-1" d="M930.62,726.69l130.13,211.68-80.9,32.81-21.68-38.59-54.1,1.94-10.56,41.32-77.56-27.01,114.67-222.15Zm-13.15,164l30.67-5.79-12.86-37.49-17.81,43.28Z"/>
        </g>
        <g>
          <path class="cls-1" d="M930.62,726.69l130.13,211.68-80.9,32.81-21.68-38.59-54.1,1.94-10.56,41.32-77.56-27.01,114.67-222.15Zm-13.15,164l30.67-5.79-12.86-37.49-17.81,43.28Z"/>
          <path class="cls-1" d="M930.62,726.69l130.13,211.68-80.9,32.81-21.68-38.59-54.1,1.94-10.56,41.32-77.56-27.01,114.67-222.15Zm-13.15,164l30.67-5.79-12.86-37.49-17.81,43.28Z"/>
        </g>
        <g>
          <path class="cls-1" d="M930.62,726.69l130.13,211.68-80.9,32.81-21.68-38.59-54.1,1.94-10.56,41.32-77.56-27.01,114.67-222.15Zm-13.15,164l30.67-5.79-12.86-37.49-17.81,43.28Z"/>
          <path class="cls-1" d="M930.62,726.69l130.13,211.68-80.9,32.81-21.68-38.59-54.1,1.94-10.56,41.32-77.56-27.01,114.67-222.15Zm-13.15,164l30.67-5.79-12.86-37.49-17.81,43.28Z"/>
        </g>
      </g>
      <g>
        <g>
          <g>
            <g>
              <path class="cls-9" d="M1191.55,787.9l-47.19,3.85v155.18l-73.17,9.64,3.86-157.39-50.26,3.58,1.81-67.8,171.63-12.68-6.68,65.62Z"/>
              <path class="cls-9" d="M1054.46,975.18l3.91-158.49-50.32,3.58,2.67-100.46,205.65-15.2-10.02,98.39-45.73,3.75v154.42l-106.16,14.01h0Zm37.3-193.5l-3.84,156.26,40.17-5.29v-155.88l48.64-4,3.34-32.84-137.59,10.17-.96,35.16,50.23-3.58h0Z"/>
            </g>
            <g>
              <path class="cls-9" d="M1191.55,787.9l-47.19,3.85v155.18l-73.17,9.64,3.86-157.39-50.26,3.58,1.81-67.8,171.63-12.68-6.68,65.62Z"/>
              <path class="cls-9" d="M1054.46,975.18l3.91-158.49-50.32,3.58,2.67-100.46,205.65-15.2-10.02,98.39-45.73,3.75v154.42l-106.16,14.01h0Zm37.3-193.5l-3.84,156.26,40.17-5.29v-155.88l48.64-4,3.34-32.84-137.59,10.17-.96,35.16,50.23-3.58h0Z"/>
            </g>
          </g>
          <g>
            <g>
              <path class="cls-9" d="M1191.55,787.9l-47.19,3.85v155.18l-73.17,9.64,3.86-157.39-50.26,3.58,1.81-67.8,171.63-12.68-6.68,65.62Z"/>
              <path class="cls-9" d="M1054.46,975.18l3.91-158.49-50.32,3.58,2.67-100.46,205.65-15.2-10.02,98.39-45.73,3.75v154.42l-106.16,14.01h0Zm37.3-193.5l-3.84,156.26,40.17-5.29v-155.88l48.64-4,3.34-32.84-137.59,10.17-.96,35.16,50.23-3.58h0Z"/>
            </g>
            <g>
              <path class="cls-9" d="M1191.55,787.9l-47.19,3.85v155.18l-73.17,9.64,3.86-157.39-50.26,3.58,1.81-67.8,171.63-12.68-6.68,65.62Z"/>
              <path class="cls-9" d="M1054.46,975.18l3.91-158.49-50.32,3.58,2.67-100.46,205.65-15.2-10.02,98.39-45.73,3.75v154.42l-106.16,14.01h0Zm37.3-193.5l-3.84,156.26,40.17-5.29v-155.88l48.64-4,3.34-32.84-137.59,10.17-.96,35.16,50.23-3.58h0Z"/>
            </g>
          </g>
        </g>
        <g>
          <path class="cls-1" d="M1191.55,787.9l-47.19,3.85v155.18l-73.17,9.64,3.86-157.39-50.26,3.58,1.81-67.8,171.63-12.68-6.68,65.62Z"/>
          <path class="cls-1" d="M1191.55,787.9l-47.19,3.85v155.18l-73.17,9.64,3.86-157.39-50.26,3.58,1.81-67.8,171.63-12.68-6.68,65.62Z"/>
        </g>
        <g>
          <path class="cls-1" d="M1191.55,787.9l-47.19,3.85v155.18l-73.17,9.64,3.86-157.39-50.26,3.58,1.81-67.8,171.63-12.68-6.68,65.62Z"/>
          <path class="cls-1" d="M1191.55,787.9l-47.19,3.85v155.18l-73.17,9.64,3.86-157.39-50.26,3.58,1.81-67.8,171.63-12.68-6.68,65.62Z"/>
        </g>
        <g>
          <path class="cls-1" d="M1191.55,787.9l-47.19,3.85v155.18l-73.17,9.64,3.86-157.39-50.26,3.58,1.81-67.8,171.63-12.68-6.68,65.62Z"/>
          <path class="cls-1" d="M1191.55,787.9l-47.19,3.85v155.18l-73.17,9.64,3.86-157.39-50.26,3.58,1.81-67.8,171.63-12.68-6.68,65.62Z"/>
        </g>
        <g>
          <path class="cls-1" d="M1191.55,787.9l-47.19,3.85v155.18l-73.17,9.64,3.86-157.39-50.26,3.58,1.81-67.8,171.63-12.68-6.68,65.62Z"/>
          <path class="cls-1" d="M1191.55,787.9l-47.19,3.85v155.18l-73.17,9.64,3.86-157.39-50.26,3.58,1.81-67.8,171.63-12.68-6.68,65.62Z"/>
        </g>
      </g>
      <g>
        <g>
          <g>
            <g>
              <path class="cls-9" d="M180.78,959.63c-23.27,4.45-41.36,4.59-55.67,3.23-76.04-7.16-113.56-56.36-108.36-119.68,4.44-54.01,40.64-117.25,128.19-109.01,22.45,2.1,38.67,7.56,47.5,10.2l4.41,1.33-4.56,67.12c-10.58-5.55-23.76-10.42-38.89-11.84-31.99-3-54.88,17.53-57.38,47.86-1.59,19.48,2.84,55.02,49.97,59.43,7.31,.68,18.63,.53,39.38-4.47l-4.59,55.84Z"/>
              <path class="cls-9" d="M141.28,979.89c-5.94,0-11.9-.28-17.71-.83C42.62,971.44-5.68,917.58,.54,841.85c5.1-62.05,47.06-124.68,129.28-124.68,5.4,0,11.01,.27,16.66,.81,21.88,2.05,38.18,7.02,47.91,9.99l19.59,5.87-7.14,105-22.11-11.61c-10.7-5.64-21.75-9.01-32.84-10.05-22.33-2.07-37.84,10.96-39.65,32.99-3.13,38.3,25.77,41,35.26,41.9,1.44,.14,3.05,.24,4.93,.24,7.44,0,17.25-1.46,29.13-4.32l21.87-5.26-7.44,90.59-12.16,2.32c-14.82,2.83-29.13,4.26-42.55,4.26h0Zm-11.46-230.19c-84.77,0-95.55,78.98-96.85,94.81-4.77,57.99,30.25,96.18,93.66,102.15,12.44,1.19,25.08,.85,38.98-1.02l1.81-21.88c-8.67,1.13-15.96,1.34-22.96,.7-51.89-4.87-67.41-42.94-64.65-76.96,3.28-39.67,34.48-66.52,75.12-62.71,7.63,.7,15.2,2.19,22.67,4.46l2.16-31.72c-8.87-2.6-20.94-5.72-36.32-7.17-4.64-.43-9.23-.66-13.62-.66h0Z"/>
            </g>
            <g>
              <path class="cls-9" d="M180.78,959.63c-23.27,4.45-41.36,4.59-55.67,3.23-76.04-7.16-113.56-56.36-108.36-119.68,4.44-54.01,40.64-117.25,128.19-109.01,22.45,2.1,38.67,7.56,47.5,10.2l4.41,1.33-4.56,67.12c-10.58-5.55-23.76-10.42-38.89-11.84-31.99-3-54.88,17.53-57.38,47.86-1.59,19.48,2.84,55.02,49.97,59.43,7.31,.68,18.63,.53,39.38-4.47l-4.59,55.84Z"/>
              <path class="cls-9" d="M141.28,979.89c-5.94,0-11.9-.28-17.71-.83C42.62,971.44-5.68,917.58,.54,841.85c5.1-62.05,47.06-124.68,129.28-124.68,5.4,0,11.01,.27,16.66,.81,21.88,2.05,38.18,7.02,47.91,9.99l19.59,5.87-7.14,105-22.11-11.61c-10.7-5.64-21.75-9.01-32.84-10.05-22.33-2.07-37.84,10.96-39.65,32.99-3.13,38.3,25.77,41,35.26,41.9,1.44,.14,3.05,.24,4.93,.24,7.44,0,17.25-1.46,29.13-4.32l21.87-5.26-7.44,90.59-12.16,2.32c-14.82,2.83-29.13,4.26-42.55,4.26h0Zm-11.46-230.19c-84.77,0-95.55,78.98-96.85,94.81-4.77,57.99,30.25,96.18,93.66,102.15,12.44,1.19,25.08,.85,38.98-1.02l1.81-21.88c-8.67,1.13-15.96,1.34-22.96,.7-51.89-4.87-67.41-42.94-64.65-76.96,3.28-39.67,34.48-66.52,75.12-62.71,7.63,.7,15.2,2.19,22.67,4.46l2.16-31.72c-8.87-2.6-20.94-5.72-36.32-7.17-4.64-.43-9.23-.66-13.62-.66h0Z"/>
            </g>
          </g>
          <g>
            <g>
              <path class="cls-9" d="M180.78,959.63c-23.27,4.45-41.36,4.59-55.67,3.23-76.04-7.16-113.56-56.36-108.36-119.68,4.44-54.01,40.64-117.25,128.19-109.01,22.45,2.1,38.67,7.56,47.5,10.2l4.41,1.33-4.56,67.12c-10.58-5.55-23.76-10.42-38.89-11.84-31.99-3-54.88,17.53-57.38,47.86-1.59,19.48,2.84,55.02,49.97,59.43,7.31,.68,18.63,.53,39.38-4.47l-4.59,55.84Z"/>
              <path class="cls-9" d="M141.28,979.89c-5.94,0-11.9-.28-17.71-.83C42.62,971.44-5.68,917.58,.54,841.85c5.1-62.05,47.06-124.68,129.28-124.68,5.4,0,11.01,.27,16.66,.81,21.88,2.05,38.18,7.02,47.91,9.99l19.59,5.87-7.14,105-22.11-11.61c-10.7-5.64-21.75-9.01-32.84-10.05-22.33-2.07-37.84,10.96-39.65,32.99-3.13,38.3,25.77,41,35.26,41.9,1.44,.14,3.05,.24,4.93,.24,7.44,0,17.25-1.46,29.13-4.32l21.87-5.26-7.44,90.59-12.16,2.32c-14.82,2.83-29.13,4.26-42.55,4.26h0Zm-11.46-230.19c-84.77,0-95.55,78.98-96.85,94.81-4.77,57.99,30.25,96.18,93.66,102.15,12.44,1.19,25.08,.85,38.98-1.02l1.81-21.88c-8.67,1.13-15.96,1.34-22.96,.7-51.89-4.87-67.41-42.94-64.65-76.96,3.28-39.67,34.48-66.52,75.12-62.71,7.63,.7,15.2,2.19,22.67,4.46l2.16-31.72c-8.87-2.6-20.94-5.72-36.32-7.17-4.64-.43-9.23-.66-13.62-.66h0Z"/>
            </g>
            <g>
              <path class="cls-9" d="M180.78,959.63c-23.27,4.45-41.36,4.59-55.67,3.23-76.04-7.16-113.56-56.36-108.36-119.68,4.44-54.01,40.64-117.25,128.19-109.01,22.45,2.1,38.67,7.56,47.5,10.2l4.41,1.33-4.56,67.12c-10.58-5.55-23.76-10.42-38.89-11.84-31.99-3-54.88,17.53-57.38,47.86-1.59,19.48,2.84,55.02,49.97,59.43,7.31,.68,18.63,.53,39.38-4.47l-4.59,55.84Z"/>
              <path class="cls-9" d="M141.28,979.89c-5.94,0-11.9-.28-17.71-.83C42.62,971.44-5.68,917.58,.54,841.85c5.1-62.05,47.06-124.68,129.28-124.68,5.4,0,11.01,.27,16.66,.81,21.88,2.05,38.18,7.02,47.91,9.99l19.59,5.87-7.14,105-22.11-11.61c-10.7-5.64-21.75-9.01-32.84-10.05-22.33-2.07-37.84,10.96-39.65,32.99-3.13,38.3,25.77,41,35.26,41.9,1.44,.14,3.05,.24,4.93,.24,7.44,0,17.25-1.46,29.13-4.32l21.87-5.26-7.44,90.59-12.16,2.32c-14.82,2.83-29.13,4.26-42.55,4.26h0Zm-11.46-230.19c-84.77,0-95.55,78.98-96.85,94.81-4.77,57.99,30.25,96.18,93.66,102.15,12.44,1.19,25.08,.85,38.98-1.02l1.81-21.88c-8.67,1.13-15.96,1.34-22.96,.7-51.89-4.87-67.41-42.94-64.65-76.96,3.28-39.67,34.48-66.52,75.12-62.71,7.63,.7,15.2,2.19,22.67,4.46l2.16-31.72c-8.87-2.6-20.94-5.72-36.32-7.17-4.64-.43-9.23-.66-13.62-.66h0Z"/>
            </g>
          </g>
        </g>
        <path class="cls-1" d="M180.78,959.63c-23.27,4.45-41.36,4.59-55.67,3.23-76.04-7.16-113.56-56.36-108.36-119.68,4.44-54.01,40.64-117.25,128.19-109.01,22.45,2.1,38.67,7.56,47.5,10.2l4.41,1.33-4.56,67.12c-10.58-5.55-23.76-10.42-38.89-11.84-31.99-3-54.88,17.53-57.38,47.86-1.59,19.48,2.84,55.02,49.97,59.43,7.31,.68,18.63,.53,39.38-4.47l-4.59,55.84Z"/>
        <path class="cls-1" d="M180.78,959.63c-23.27,4.45-41.36,4.59-55.67,3.23-76.04-7.16-113.56-56.36-108.36-119.68,4.44-54.01,40.64-117.25,128.19-109.01,22.45,2.1,38.67,7.56,47.5,10.2l4.41,1.33-4.56,67.12c-10.58-5.55-23.76-10.42-38.89-11.84-31.99-3-54.88,17.53-57.38,47.86-1.59,19.48,2.84,55.02,49.97,59.43,7.31,.68,18.63,.53,39.38-4.47l-4.59,55.84Z"/>
        <path class="cls-1" d="M180.78,959.63c-23.27,4.45-41.36,4.59-55.67,3.23-76.04-7.16-113.56-56.36-108.36-119.68,4.44-54.01,40.64-117.25,128.19-109.01,22.45,2.1,38.67,7.56,47.5,10.2l4.41,1.33-4.56,67.12c-10.58-5.55-23.76-10.42-38.89-11.84-31.99-3-54.88,17.53-57.38,47.86-1.59,19.48,2.84,55.02,49.97,59.43,7.31,.68,18.63,.53,39.38-4.47l-4.59,55.84Z"/>
        <path class="cls-1" d="M180.78,959.63c-23.27,4.45-41.36,4.59-55.67,3.23-76.04-7.16-113.56-56.36-108.36-119.68,4.44-54.01,40.64-117.25,128.19-109.01,22.45,2.1,38.67,7.56,47.5,10.2l4.41,1.33-4.56,67.12c-10.58-5.55-23.76-10.42-38.89-11.84-31.99-3-54.88,17.53-57.38,47.86-1.59,19.48,2.84,55.02,49.97,59.43,7.31,.68,18.63,.53,39.38-4.47l-4.59,55.84Z"/>
        <path class="cls-1" d="M180.78,959.63c-23.27,4.45-41.36,4.59-55.67,3.23-76.04-7.16-113.56-56.36-108.36-119.68,4.44-54.01,40.64-117.25,128.19-109.01,22.45,2.1,38.67,7.56,47.5,10.2l4.41,1.33-4.56,67.12c-10.58-5.55-23.76-10.42-38.89-11.84-31.99-3-54.88,17.53-57.38,47.86-1.59,19.48,2.84,55.02,49.97,59.43,7.31,.68,18.63,.53,39.38-4.47l-4.59,55.84Z"/>
        <path class="cls-1" d="M180.78,959.63c-23.27,4.45-41.36,4.59-55.67,3.23-76.04-7.16-113.56-56.36-108.36-119.68,4.44-54.01,40.64-117.25,128.19-109.01,22.45,2.1,38.67,7.56,47.5,10.2l4.41,1.33-4.56,67.12c-10.58-5.55-23.76-10.42-38.89-11.84-31.99-3-54.88,17.53-57.38,47.86-1.59,19.48,2.84,55.02,49.97,59.43,7.31,.68,18.63,.53,39.38-4.47l-4.59,55.84Z"/>
        <path class="cls-1" d="M180.78,959.63c-23.27,4.45-41.36,4.59-55.67,3.23-76.04-7.16-113.56-56.36-108.36-119.68,4.44-54.01,40.64-117.25,128.19-109.01,22.45,2.1,38.67,7.56,47.5,10.2l4.41,1.33-4.56,67.12c-10.58-5.55-23.76-10.42-38.89-11.84-31.99-3-54.88,17.53-57.38,47.86-1.59,19.48,2.84,55.02,49.97,59.43,7.31,.68,18.63,.53,39.38-4.47l-4.59,55.84Z"/>
        <path class="cls-1" d="M180.78,959.63c-23.27,4.45-41.36,4.59-55.67,3.23-76.04-7.16-113.56-56.36-108.36-119.68,4.44-54.01,40.64-117.25,128.19-109.01,22.45,2.1,38.67,7.56,47.5,10.2l4.41,1.33-4.56,67.12c-10.58-5.55-23.76-10.42-38.89-11.84-31.99-3-54.88,17.53-57.38,47.86-1.59,19.48,2.84,55.02,49.97,59.43,7.31,.68,18.63,.53,39.38-4.47l-4.59,55.84Z"/>
      </g>
    </g>
    <path class="cls-7" d="M212.66,212.08c-55.12,111.82-106.15,177.86,20.29,326.35,29.57,27.26,64.14,64.94,69.96,97.95,18.61,9.1,20.3-24.94,33.52-15.84-23.2-106.72,49-150.58,.42-277.65-7.44,14.61-14.43,31.62-21.89,46.18-13.49-44.12-16.79-59.27-37.84-109.11-13.44,14.34-22.78,33.34-30.31,54.45-4.83-50.93-29.33-71.44-34.15-122.33Z"/>
    <path class="cls-8" d="M290.37,486.21c-5.93-18.15-54.19-53.73-60.14-71.88-9.66,89.18,76.02,152.86,71.43,168.35,9.9,10.66,7.32,16.45,17.23,27.15-23.78-49.88,21.96-117.75-39.63-187.01,4.58,12.93,16.45,50.91,11.11,63.4Z"/>
    <path class="cls-8" d="M473,155.61c-46.7-2.13-92.32-5.4-106.4,39.68-10.75,34.42,11.58,128.17,87.23,157.49-2.36-59.71-6.09-163.34,19.16-197.17Z"/>
    <path class="cls-7" d="M470.6,151.27l3.44,.16,7.07,.37-4.23,5.6c-11.98,16.1-17.16,49.63-19.04,86.55-1.9,37.4-.38,78.22,.79,108.03l.32,7.61-7.65-2.96c-55.86-21.64-83.33-77.3-90.23-119.92-1.37-8.31-1.89-16.16-1.76-23.16,.16-7.15,1.05-13.53,2.68-18.65h0v-.04s0,0,0,0c14.95-47.91,60.89-45.75,108.63-43.59h0Zm-5.14,8.17c-42.09-1.94-82.05-2.82-94.26,36.26h-.02v.07h.02c-1.39,4.48-2.19,10.1-2.33,16.51-.15,6.65,.41,14.05,1.69,21.99,6.27,38.82,30.25,88.95,78.2,111.44-1.14-28.95-2.27-66.1-.47-100.68,1.76-34.58,6.51-66.63,17.17-85.59Z"/>
    <path class="cls-6" d="M449.65,206.16c-7.99,29.93-3.5,107.22-4.42,137.96-93.84-54.11-104.99-177.62,4.42-137.96Z"/>
    <path class="cls-7" d="M454.19,207.32c-.04,.18-.07,.36-.1,.47-5.38,20.79-4.75,65.49-4.25,100.45,.19,14.4,.37,27.11,.13,36.03l-.27,7.96-6.83-4.01c-41.87-24.11-67.82-61.87-74.6-93.56-2.46-11.66-2.42-22.54,.32-31.82,2.83-9.71,8.53-17.57,17.22-22.7,13.96-8.31,35.6-9.25,65.44,1.58l4.03,1.49-1.1,4.11h0Zm-7.41,100.54c7.79-31.59,5.74-72.41,1.77-97.66-24.8-8.33-46.85-8.59-57.94-1.93-6.52,3.84-10.83,9.86-12.98,17.22-2.27,7.77-2.27,17.09-.11,27.18,5.9,27.67,27.79,60.46,63.15,83.15,6.38-7.28,6.24-17.65,6.1-27.96Z"/>
    <g>
      <path class="cls-3" d="M486.25,342.67c3.49,0,6.35,4.92,6.35,10.84s-2.86,10.78-6.35,10.78-6.43-4.79-6.43-10.78,2.91-10.84,6.43-10.84Z"/>
      <path class="cls-7" d="M477.85,353.51c0,7.15,3.69,12.76,8.4,12.76s8.32-5.61,8.32-12.76-3.64-12.82-8.32-12.82-8.4,5.63-8.4,12.82Zm3.96,0c0-5.07,2.34-8.86,4.44-8.86s4.37,3.79,4.37,8.86-2.31,8.8-4.37,8.8-4.44-3.76-4.44-8.8Z"/>
    </g>
    <path class="cls-8" d="M439.83,280.81c-7.08,52.76,5.71,91.51,31.15,115.88-35.76,34.25-61.36,69.27-19.6,103.51,79.89,100.41,182.97,98.77,283.74,107.23,8.35,9,62.69,28,71.07-.65,2.24-7.74-35.87-41.41-30.89-48.52,105.88,12.42,206.54-47.95,189.89-138.48,37.62,10.96,69.87-20.07,92.68-64.55,89.99-156.65-21.68-385.3-190.97-239.26-37.69-40.85-94.87-69.68-154.95-73.3-32.65-22.44-97.56-46.36-144.84-36.06,1.5,11.09,59.81,45.44,63.21,55.96-42.86-35.98-66.13-33.4-114.46-30.76,27.55,23.88,45.08,21.19,72.62,45.08-40.99-10.94-75.62-7.91-112.51,30.15-3.52,10.68,37.31,9.6,27.61,15.35-37.86,22.41-62.24,79.5-63.74,158.44Z"/>
    <path class="cls-7" d="M453.54,315.03c2.44,31.44,3.49,61.62,21.22,78.62l2.66,2.55-3.12,2.97c-17.36,16.63-32.27,33.35-37.62,49.76-5.19,15.89-1.32,31.91,18.29,48.01l.28,.27,.23,.27c71.68,90.09,162.67,96.89,253.62,103.72,8.69,.65,17.36,1.3,27.22,2.12l1.71,.13,.99,1.08c43.24,46.58,166.32-72.27,185.02-87.91,20.71-17.27,34.47-39.63,37.55-65.6,1.08-9.55,.79-19.49-1.13-29.95l-1.4-7.61,8.31,2.34h.04c4.84,1.38,9.55,2.08,14.06,2.06,4.44-.04,8.83-.79,13.14-2.06,22.94-6.9,43.13-30.94,58.96-61.74l.07-.18c34.9-60.7,38.95-132.5,20.83-188.39-8.02-24.81-20.36-46.39-36.3-62.51-15.74-15.85-34.9-26.24-56.78-28.93-31.77-3.96-69.66,8.51-111.37,44.59-15.86,13.61-25.23,38.55-28.8,58.15l-6.8-3.42c2.69-23.36,11.75-41.53,26.39-56.83-4.6-4.81-9.49-9.45-14.64-13.92-5.92-5.15-12.15-10.02-18.69-14.56-33.39-23.34-74.3-38.7-116.66-41.22l-1.29-.09-.92-.63h-.05v-.04c-36.79-25.35-89.42-42.62-133.16-36.81,25.74,21.7,40.47,24.92,62.14,62.41l-4.14-3.48c-20.88-17.56-38.56-26.3-56.77-30.3-14.97-3.24-30.56-3.34-48.77-2.55,9.77,7.09,18.41,11.16,27.08,15.23,11.49,5.43,23.02,10.84,37.19,23.08l14.51,12.54-20.23-5.41c-19.79-5.17-37.9-7.17-55.29-3.2-16.8,3.79-33.32,13.15-50.48,30.44,21.77,8.12,61.32,15.45,79.08,10.38l31.95-9.13-27.55,18.62c-6.65,4.5-12.94,9.45-17.7,16.21-2.73,3.82-4.96,8.3-6.58,13.74,4.97-3.1,10.45-5.71,16.5-7.69l3.54,10.74c-25.1,8.37-39.06,28.08-41.89,59.15l-11.21-.99c1.94-21.68,8.72-38.59,20.27-50.84,1.34-12.92,5.25-22.57,10.68-30.26,1.56-2.21,3.21-4.18,4.97-6.09-10.66-.78-24.99-2.14-38.66-5.11-4.36,2.73-8.56,6-12.52,9.77-4.49,4.2-8.71,9.13-12.6,14.53-27.32,37.95-29.54,110.81-25.4,163.97h0Zm17.45-167.37c4.35-6.02,9.01-11.43,13.97-16.16,3.84-3.55,7.52-6.51,11.64-9.32-7.07-1.44-28.9-4.35-25.22-15.65l.35-1.05,.78-.8c19.29-19.92,38.22-30.72,57.75-35.11,12.71-2.86,25.58-2.98,38.95-1.13-6.92-4.32-13.37-7.34-19.85-10.36-11.48-5.43-22.99-10.85-37.17-23.09l-7.67-6.67,11.82-.65c24.58-1.31,44.51-2.04,64.06,2.21,5.07,1.11,10.07,2.59,15.11,4.37-.25-.12-.51-.27-.76-.42-15.93-10.22-30.77-19.76-32.28-25.66l-.04-.08-.02-.06-1.04-4.28,5.34-1.17c35.25-7.67,79.51,2.83,113.97,17.9,6.69,2.95,12.97,6.05,18.76,9.13,5.48,3.06,10.49,6.06,14.91,8.99,43.61,2.88,85.61,18.74,119.92,42.73,6.74,4.68,13.19,9.68,19.26,14.99,4.98,4.26,9.77,8.86,14.33,13.61,43.07-35.92,82.65-48.27,116.43-44.04,23.91,2.87,44.73,14.12,61.57,31.18,16.67,16.82,29.61,39.29,37.9,65.02,18.64,57.54,14.41,131.52-21.56,194.23v.02c-17.03,33.27-39.49,59.32-65.88,67.31-5.27,1.56-10.76,2.41-16.37,2.45-2.94,.04-5.92-.15-8.92-.63,1.05,8.61,1.05,16.94,.06,24.95-3.26,28.38-18.33,52.85-41,71.73-38.62,32.22-144.21,134.92-197.79,89.29-7.79-.67-16.66-1.39-25.53-2-92.79-6.94-185.6-13.9-259.27-106.31-21.89-18.03-26.01-36.58-19.96-55.15,5.65-17.25,20.01-34.11,37.11-50.81-17.43-17.87-18.24-48.66-20.69-80.2-4.41-56.67-5.69-123.85,27.04-169.31Z"/>
    <path class="cls-7" d="M773.88,326.55c-17.97,.31-35.62,5.45-52.83,13.91-17.48,8.67-34.63,20.8-51.33,34.93l-6.1,5.18-3.59-7.21c-4.76-9.61-8.75-19.74-11.77-29.92-6.69-22.56-8.83-45.79-5.08-65.54,3.91-20.59,14.19-37.5,32.15-46.47,2.93-1.43,6.13-2.69,9.47-3.7,5.33-1.57,10.41-2.58,15.26-3.15,19.91-2.14,35.76,4.18,47.97,15.83,11.77,11.16,20.06,27.18,25.4,45.19,3.19,10.86,5.38,22.4,6.59,34.03l.76,6.8-6.89,.12h0Zm-58.39,2.64c16.62-8.16,33.73-13.53,51.22-14.94-1.23-8.58-2.97-17.08-5.34-25.1-4.77-16.06-11.94-30.14-22.02-39.68-9.63-9.07-22.09-14.09-38-12.39-4.05,.46-8.41,1.36-13.01,2.68-2.65,.8-5.12,1.77-7.46,2.92-14.02,7-22.15,20.64-25.36,37.51-3.35,17.76-1.37,38.9,4.8,59.7,2.06,7.01,4.62,13.89,7.59,20.7,15.4-12.53,31.29-23.32,47.57-31.4Z"/>
    <path class="cls-7" d="M615.37,277.42c28.72,2.23,54.46,.97,77.24-3.74,22.57-4.65,42.35-12.71,59.31-24.22l6.83,10.09c-18.26,12.34-39.53,21.02-63.72,25.99-24.07,4.95-50.92,6.34-80.53,4.07l.87-12.2Z"/>
    <g>
      <path class="cls-3" d="M651.21,287.94c-4.62,33.44,8.17,57.92,18.72,79.36,22.34-23.71,59.29-40.08,95.2-48.87,3.23-26.25,4.25-50.85-10.53-63.75-30.44,18.05-70.57,38.16-103.39,33.26Z"/>
      <path class="cls-7" d="M753.59,252.99c-27.91,16.55-68.84,37.97-102.09,32.99l-1.98-.29-.25,1.98c-4.56,32.96,7.36,57.11,17.87,78.41l2.3,4.64,1.97-2.07c19.63-20.84,53.97-38.44,94.22-48.3l1.3-.32,.17-1.36c3-24.34,4.87-51.46-11.2-65.49l-1.06-.95-1.23,.74Zm.38,4.31c8.41,8.1,11.19,20.68,11.19,34.69,0,8.14-.91,16.68-1.9,24.92-23.77,5.93-65.41,19.79-92.64,47.28-8.74-17.66-18.42-37.33-18.42-62.31,0-3.79,.36-7.77,.84-11.83,33.44,3.94,73.13-16.36,100.92-32.75Z"/>
    </g>
    <g>
      <path class="cls-5" d="M688.23,285.34c-9.91,27.16-9.87,49.17,12.06,59.99,17.2-11.87,39.4-20.97,66.6-27.27,2.64-25.19,1.76-48.37-11.64-64.5-20.99,13.4-43.1,24.32-67.02,31.78Z"/>
      <path class="cls-7" d="M754.17,251.9c-22.26,14.21-44.03,24.54-66.54,31.57l-.94,.28-.34,.92c-11.67,31.93-7.39,52.37,13.06,62.44,18.9-11.83,41.09-20.9,67.92-27.13l1.37-.31,.15-1.41c2.35-22.57,2.75-48.04-12.12-65.96l-1.1-1.33-1.47,.93Zm.25,4.38c8.87,11.5,11.72,26.2,11.72,41.25,0,6.41-.51,12.82-1.16,19.05-26.58,6.32-48.84,15.38-65.84,27.12-10.16-5.71-15.4-14.8-15.4-27.94,0-8.05,2.14-17.73,6.14-28.96,21.84-6.92,42.99-16.97,64.53-30.53Z"/>
    </g>
    <path class="cls-2" d="M754.88,431.92c12.23,89.86-4.06,163.36-49.03,220.61-12.26-10.21-24.55-20.45-36.77-30.64,4.08,19.38-7.68,35.08-11.72,62.62-8.2-18.4-14.6-28.94-25.06-47.31-5.07,24.46-15.31,43.89-36.74,52.05-47.04-38.78-94-77.59-140.97-116.42,36.93-76.14,157-113.87,300.29-140.91Z"/>
    <path class="cls-7" d="M760.47,431.15c6.22,45.56,5.17,87.09-3.16,124.51-8.35,37.66-24.01,71.08-47.04,100.35l-3.59,4.57-4.45-3.7-26.84-22.39c-.67,7.62-2.97,14.98-5.57,23.26-2.56,8.05-5.34,16.97-6.89,27.59l-2.89,19.21-7.89-17.74c-6.1-13.7-11.23-23.07-17.91-34.76-2.41,7.46-5.49,14.4-9.49,20.42-6.5,9.94-15.28,17.56-27.21,22.08l-3.08,1.18-2.55-2.08-140.96-116.45-3.39-2.8,1.92-3.97c19.18-39.47,59.4-68.83,113.16-91.67,52.95-22.5,119.21-38.78,191.19-52.38l5.85-1.17,.79,5.95h0Zm-14.14,122.11c7.68-34.53,8.89-72.72,3.73-114.69-69.02,13.25-132.32,29.01-183,50.6-49.49,21.05-86.81,47.48-105.37,82.18l134.81,111.41c8.04-3.71,14.17-9.35,18.8-16.52,5.5-8.32,9.08-18.64,11.51-30.18l3.02-14.62,7.41,12.98c.85,1.53,1.19,2.1,3.82,6.69,5.47,9.54,9.78,17.19,14.21,25.9,1.23-4.53,2.55-8.69,3.77-12.63,3.63-11.57,6.69-21.15,4.53-31.35l-3.34-15.94,12.5,10.44,32.27,26.82c19.98-26.8,33.81-57.18,41.34-91.09Z"/>
    <g>
      <path class="cls-3" d="M704.14,295.38c5.56,.57,9.32,8.68,8.38,18.11-.96,9.37-6.23,16.64-11.79,16.07-5.54-.58-9.3-8.68-8.37-18.14,.97-9.38,6.23-16.58,11.78-16.04Z"/>
      <path class="cls-7" d="M690.39,311.23c-1.09,10.68,3.37,19.59,10.15,20.3,6.71,.69,12.84-7.14,13.96-17.84,1.06-10.69-3.42-19.59-10.17-20.28h0c-6.72-.65-12.85,7.18-13.94,17.81Zm10.56,16.36c-3.94-.4-7.52-6.92-6.61-15.97,.82-8.15,5.23-14.68,9.6-14.26,3.9,.4,6.75,6.23,6.75,13.28,0,.87-.04,1.75-.13,2.66-.85,8.06-5.35,14.75-9.61,14.3Z"/>
    </g>
    <path class="cls-7" d="M534.72,348.63l-.05,.03c-19.87,2.4-41.16,24.51-59.15,43.25-1.29,1.3-2.47,2.55-4.42,4.56l-3.96,4.09-4.29-3.8c-10.66-9.36-18.07-19.94-22.29-30.65-3.69-9.34-4.91-18.73-3.75-27.66,1.2-9.04,4.88-17.37,11.07-24.46,5.32-6,12.37-10.98,21.29-14.48h.01c15.8-6.21,30.22-4.4,42.49,3.5,11.74,7.51,21.32,20.58,27.94,37.44v.05c.06,.08,.12,.33,.12,.33l2.35,7-7.37,.79h0Zm-67.85,34.9c17.3-18.01,37.44-38.91,58.74-45.19-5.39-11.35-12.33-20.06-20.43-25.22-9.02-5.8-19.76-7.08-31.59-2.4h-.03c-7.04,2.76-12.56,6.66-16.65,11.25-4.57,5.25-7.3,11.43-8.18,18.1-.93,6.86,.09,14.24,3.03,21.69,2.94,7.54,7.9,15.06,14.89,22.11,.06-.11,.13-.18,.24-.34Z"/>
    <g>
      <path class="cls-3" d="M445.87,339.94c-1.53,21.68,9.15,42.49,23.41,49.98,12.5-16.27,34.68-28.82,56.67-36.6,.35-16.71-.57-32.13-10.62-39.38-17.95,13.28-48.57,27.05-69.46,25.99Z"/>
      <path class="cls-7" d="M514.14,312.35c-17.81,13.19-47.78,26.65-68.18,25.62l-1.94-.1-.14,1.93c-1.5,21.46,9.01,43.76,24.48,51.88l1.48,.76,1-1.32c10.88-14.15,31.21-27.25,55.76-35.93l1.3-.47,.02-1.36c.33-15.63-.26-32.97-11.43-41.03l-1.18-.84-1.17,.85Zm.67,4.27c7.62,6.4,9.22,18.83,9.22,31.39,0,1.33-.02,2.65-.04,3.96-14.68,5.3-39.6,16.59-54.88,35.35-12.6-7.42-21.41-25.17-21.41-43.31,0-.68,.05-1.36,.07-2.04,20.63,.16,49.09-12.53,67.03-25.34Z"/>
    </g>
    <g>
      <path class="cls-5" d="M473.19,335c-4.47,17.63-.69,35.06,13.75,40.45,10.06-8.49,29.37-19.19,46.08-24.86,.07-15.97-7.94-28.04-17.36-37.35-12.36,9.68-27.91,15.53-42.46,21.75Z"/>
      <path class="cls-7" d="M514.42,311.69c-10.52,8.25-23.59,13.73-36.22,19.03l-6.71,2.83-.24,.96c-5.24,20.63,.65,37.45,14.97,42.78,12.22-8.98,31.75-19.51,47.42-24.83l1.33-.45v-1.42c.05-14.09-5.8-26.78-17.95-38.76l-1.23-1.23-1.38,1.08Zm-34.67,22.68c12.25-5.14,24.77-10.62,35.4-18.51,10.2,10.5,15.38,21.51,15.66,33.55-16.01,5.66-34.74,15.73-45.15,24.52-9-4.1-12.3-14.2-12.3-24.7,0-4.37,.66-8.75,1.64-12.85,1.38-.59,4.75-2.02,4.75-2.02Z"/>
    </g>
    <path class="cls-7" d="M569.93,336.01c-30.74,11.58-77.29,44.48-101.15,68.64,1.54-31,73.98-70.48,97.2-79.14l3.94,10.5Z"/>
    <g>
      <path class="cls-4" d="M625.45,448.95c-59.2,35.81-87.13,57.63-146.33,44.22-47.19,8.65-74.58-65.29-14.1-62.6,38.74-3.55,30.98,5.05,87.82-31.64,37.66-32.5,79.59-6.56,72.61,50.02Z"/>
      <path class="cls-7" d="M548.27,393.61c-43.42,27.95-46.78,28.07-65.4,28.83l-18.51,1.14c-24.17-1.15-34,10.02-37.63,16.77-6.13,11.39-3.99,27.1,5.43,40.03,11.03,15.14,28.9,22.58,46.89,19.8,55.81,12.16,85.98-6.02,135.34-36.28l17.6-10.72,.43-3.38c3.79-30.8-6.21-56.55-26.11-67.17-17.52-9.37-39.23-5.27-58.04,10.98Zm-64.85,42.84c22.14-.89,27.12-1.88,73.23-31.64,15.24-13.07,30.66-16.44,43.05-9.82,12.42,6.64,19.48,22.26,19.48,42.03,0,2.52-.27,5.18-.5,7.83-3.87,2.37-11.61,7.09-11.61,7.09-48.43,29.65-75.11,45.98-126.41,34.37l-1.39-.32-1.41,.25c-13.3,2.43-26.14-2.84-34.37-14.13-6.26-8.61-7.99-18.47-4.41-25.14,3.57-6.65,12.67-10.01,25.61-9.41,.95-.03,18.73-1.12,18.73-1.12Z"/>
    </g>
    <path class="cls-8" d="M1006.06,581.78c-35.04,91.53-176.81,141.94-285.04,93.86-6.88-30.32-1.63-65.98,21.36-92.9,42.33-49.5,132.56-76.35,193.67-63.66,31.56,6.52,58.01,29.04,70.01,62.7Z"/>
    <path class="cls-7" d="M1011.31,584.02c-.85,2.27-1.77,4.43-2.65,6.44-19.54,43.96-62.9,77.97-114.69,95.82-51.54,17.72-111.6,19.48-164.97-.96-3.34-1.3-6.75-2.67-10.18-4.24l-2.66-1.18-.67-2.86v-.13c-1.02-4.45-1.78-9.02-2.27-13.68-.51-4.75-.76-9.43-.66-14.13v-.05c.27-24.48,8.1-49.83,25.61-70.31h.03c-.08,.06-.55,.48,.12-.17,6.14-7.19,13.28-13.89,21.09-20.12,7.84-6.15,16.41-11.8,25.5-16.95,46.48-26.06,107.01-37.6,152.18-28.25v-.04l.04,.04h.04c4.67,.95,9.29,2.24,13.68,3.88,4.44,1.65,8.75,3.57,12.88,5.8,21.39,11.56,38.5,31.15,47.63,56.77l.79,2.1-.84,2.22h0Zm-12.94,1.41c.57-1.31,1.1-2.55,1.57-3.73-8.28-21.7-23.03-38.31-41.36-48.15-3.68-1.97-7.45-3.73-11.44-5.16-3.93-1.45-7.98-2.57-12.13-3.47v.06h-.04l-.03-.07c-42.76-8.87-100.33,2.21-144.72,27.15-8.55,4.82-16.68,10.2-24.04,15.97-7.31,5.77-13.9,11.95-19.57,18.64l-.03,.02c-15.54,18.19-22.48,40.69-22.71,62.48v.03c-.06,4.33,.14,8.55,.58,12.76,.31,3.1,.84,6.2,1.4,9.34,2.29,.94,4.62,1.92,6.96,2.79,51,19.52,108.37,17.8,157.62,.87,48.97-16.85,89.74-48.64,107.92-89.52Z"/>
    <path class="cls-2" d="M524.49,499.29c40.85-59.24,132.32-85.78,230.4-79.67-10.15,55.2-25.46,107.33-76.63,137.87-64.33,21.5-125.38,6.99-153.77-58.2Z"/>
    <path class="cls-7" d="M519.83,496.12l.06-.14c6-8.65,13.01-16.61,20.86-23.87,7.86-7.29,16.63-13.86,26.1-19.72,48.37-30.11,116.72-42.87,188.36-38.42l6.36,.38-1.13,6.29c-5.17,28.05-11.65,55.29-23.43,79.62-11.92,24.65-29.23,46.17-55.87,62.08l-.57,.31-.54,.17-.03,.04c-9.29,3.09-18.49,5.47-27.58,7.03-9.11,1.65-18.07,2.48-26.87,2.53-45.5,.06-84.81-21.65-106.26-70.93l-1.24-2.88,1.77-2.51h0Zm28.59-15.69c-6.54,5.98-12.37,12.52-17.46,19.52,19.64,42.46,54.45,61.24,94.61,61.17,8.14-.01,16.48-.84,24.93-2.29,8.37-1.52,16.88-3.66,25.47-6.52,24.2-14.61,39.95-34.34,50.91-56.93,10.34-21.41,16.45-45.53,21.27-70.48-67.11-3.18-130.41,9.16-175.32,37.04-8.91,5.52-17.08,11.65-24.4,18.49Z"/>
    <path class="cls-2" d="M439.27,536.09c-7.14-42.92,9.43-54.78,84-40.47,12.22,28.61,12.22,57.2,0,85.87-58.25-6.18-74.81-22.94-84-45.39Z"/>
    <path class="cls-7" d="M433.72,536.98c-4.03-24.05-1.01-39.66,14.27-47.6,13.8-7.14,37.73-6.68,76.31,.72l2.94,.52,1.19,2.78c6.46,15.07,9.66,30.07,9.66,45.13s-3.2,30.04-9.66,45.1l-1.62,3.82-4.14-.44c-30.03-3.15-49.51-9.15-62.78-17.33-13.81-8.55-20.87-19.23-25.87-31.46l-.23-.6-.07-.62h0Zm19.5-37.57c-9.76,5.11-11.48,16.69-8.52,35.09,4.19,9.99,10.01,18.72,21.13,25.59,11.25,6.93,28.01,12.24,53.82,15.26,4.74-12.32,7.15-24.55,7.15-36.83s-2.52-25.26-7.61-37.94c-34.18-6.39-54.94-6.89-65.98-1.17Z"/>
    <path class="cls-7" d="M430.93,334.89c17.91-.44,33.37-2.79,46.78-7.16,13.16-4.21,24.48-10.43,34.23-18.52l7.72,9.22c-10.9,9.08-23.51,15.98-38.3,20.74-14.57,4.71-31.19,7.25-50.16,7.76l-.27-12.05Z"/>
    <path class="cls-7" d="M638.22,390.31l.04-.02c8-8.13,16.46-15.83,25.26-22.78,8.91-7.06,18.22-13.45,27.82-19.13,50.01-29.16,107.11-36.13,151.18,5.5l-6.8,7.28c-40.18-38-92.93-31.3-139.37-4.15-9.12,5.38-18.1,11.51-26.63,18.25-8.67,6.89-16.82,14.24-24.42,22.02l-.03,.06h-.01l-4.86-4.87-2.18-2.12s0-.04,.04-.04h-.04Z"/>
    <g>
      <path class="cls-3" d="M773.77,754.27c-32.22-10.95-59.86-40.16-44.6-80.4,15.19-40.29,65.92-27.78,75.55,9.83,6.94,27.17-8.5,56.93-30.95,70.57Z"/>
      <path class="cls-7" d="M722.32,671.29c-6.66,17.47-6.34,34.76,.84,50.01,8.4,17.81,25.96,32.34,48.24,39.91l3.26,1.11,2.91-1.79c26.84-16.29,41.56-50.1,34.26-78.65-5.75-22.45-25.08-38.96-47.01-40.17-19.23-1.06-35.14,9.99-42.5,29.58Zm14.1,43.76c-2.83-6.01-4.25-12.35-4.25-18.97s1.29-12.84,3.85-19.61c5.1-13.48,15.29-20.8,28.01-20.11,12.77,.71,28.71,10.12,33.6,29.16,.97,3.86,1.43,7.75,1.43,11.62,0,19.59-11.83,38.27-26.12,48.45-16.81-6.53-30.25-17.26-36.51-30.55Z"/>
    </g>
    <g>
      <path class="cls-3" d="M848.27,738.17c-32.08-14.79-58.54-46.79-40.95-84.34,17.66-37.53,68.41-18.95,76.14,19.07,5.55,27.47-11.67,54.66-35.2,65.27Z"/>
      <path class="cls-7" d="M800.7,650.7c-7.33,15.65-8.29,31.96-2.72,47.16,7.01,19.24,24.21,36.36,47.21,46.96l3.05,1.4,3.06-1.37c28.31-12.78,45.25-44.35,39.36-73.41-4.76-23.43-24.75-42.38-47.52-45.12-18.36-2.21-34.24,6.91-42.44,24.38Zm11.03,42.12c-1.8-4.92-2.7-9.94-2.7-15.01,0-6.88,1.67-13.84,4.96-20.86,7.47-15.93,20.4-16.9,27.44-16.06,13.93,1.68,30.89,13.97,34.87,33.46,.63,3.14,.92,6.23,.92,9.27,0,20.37-13.51,37.56-28.82,45.89-17.76-9-31.29-22-36.66-36.69Z"/>
    </g>
    <path class="cls-7" d="M259.39,578.77c51.45-84.63,130.27-63.7,181.41-44.55,107.37,41.74,126.91,97.27,105.48,171.9-97.92,15.21-242.64-33.95-286.89-127.35Z"/>
    <path class="cls-8" d="M275.1,581.41c45.15-74.32,116.69-54.63,161.62-37.74,94.25,36.61,118.32,90.68,99.51,156.08-85.98,13.38-222.29-36.37-261.13-118.34Z"/>
    <g>
      <path class="cls-3" d="M251.66,674.41c-18.35-28.7-21.82-68.71,15.17-90.76,36.99-21.97,68.88,19.4,52.95,54.85-11.5,25.55-42.05,39.26-68.13,35.92Z"/>
      <path class="cls-7" d="M263.08,577.33c-16.08,9.59-26.6,23.3-30.48,39.71-4.52,19.13,.18,41.47,12.88,61.32l1.84,2.88,3.4,.44c31.07,3.99,63.64-13.28,75.74-40.17,9.51-21.12,4.69-46.09-11.68-60.71-14.38-12.85-33.72-14.14-51.7-3.47Zm-17.4,51.34c.17-2.84,.57-5.6,1.21-8.27,2.97-12.63,10.96-22.87,23.69-30.46,12.37-7.35,24.92-6.69,34.43,1.8,6.99,6.22,12.38,17.17,11.63,29.6-.28,4.57-1.4,9.33-3.55,14.14-9.87,21.98-35.73,33.01-56.66,31.93-7.49-12.8-11.5-26.36-10.75-38.74Z"/>
    </g>
    <g>
      <path class="cls-3" d="M319.95,708.16c-15.88-31.59-16.64-73.09,20.51-91.44,37.21-18.42,65.35,27.76,47.68,62.29-12.74,25-43.18,35.51-68.19,29.14Z"/>
      <path class="cls-7" d="M337.22,610.15c-15.48,7.64-26.36,19.78-31.49,35.09-6.52,19.43-3.71,43.57,7.68,66.22l1.49,2.97,3.25,.84c30.14,7.67,63.03-6.48,76.52-32.93,10.88-21.24,7.1-48.52-9.02-64.84-13-13.19-31.12-15.94-48.43-7.36Zm-20.18,53.49c.29-4.83,1.16-9.43,2.59-13.73,3.92-11.7,12.02-20.66,24.08-26.61,15.81-7.83,26.52-.53,31.51,4.51,9.86,10,15.45,30.17,6.38,47.89-11.23,22.04-36.55,29.44-56.28,25.91-5.93-12.91-9.01-26.08-8.29-37.96Z"/>
    </g>
    <g>
      <path class="cls-3" d="M404.16,744.04c-22.51-27.28-32.49-67.58-.34-93.74,32.16-26.21,69.88,12.56,60.34,50.13-6.94,27.22-34.23,44.18-60,43.61Z"/>
      <path class="cls-7" d="M399.19,644.61c-13.4,10.89-21.31,25.15-22.91,41.24-2.03,20.39,6.08,43.29,22.2,62.86l2.15,2.58,3.37,.08c31.03,.69,59.96-20.44,67.28-49.14,5.86-23.15-3.9-48.89-23.22-61.2-15.62-9.97-33.9-8.63-48.86,3.58Zm-8.46,44.51c.04-.61,.1-1.22,.15-1.83,1.22-12.27,7.14-22.81,17.58-31.31,13.64-11.12,25.72-6.4,31.7-2.59,10.23,6.55,19.08,21.23,18.09,37.56-.16,2.53-.54,5.1-1.2,7.67-6.09,23.92-29.11,36.58-49.11,37.59-11.59-15.2-18.12-32-17.2-47.08Z"/>
    </g>
    <g>
      <path class="cls-3" d="M483.06,762.64c-22.5-27.26-32.47-67.54-.3-93.7,32.12-26.19,69.84,12.55,60.32,50.12-6.93,27.2-34.22,44.24-60.02,43.57Z"/>
      <path class="cls-7" d="M478.12,663.26c-13.38,10.88-21.32,25.13-22.92,41.21-2.02,20.39,6.06,43.28,22.2,62.84l2.13,2.57,3.34,.09c31.05,.79,59.99-20.3,67.3-49.11,5.88-23.12-3.9-48.86-23.22-61.19-15.62-9.94-33.88-8.62-48.84,3.59Zm-8.46,44.5c.03-.61,.08-1.23,.14-1.83,1.22-12.27,7.13-22.8,17.59-31.31,13.66-11.12,25.7-6.4,31.68-2.59,10.26,6.54,19.09,21.23,18.1,37.55-.15,2.53-.55,5.1-1.21,7.69-6.1,23.99-29.09,36.62-49.09,37.55-11.6-15.18-18.13-31.99-17.21-47.06Z"/>
    </g>
  </g>
</svg>