<?xml version="1.0" encoding="UTF-8"?>
<svg id="_Слой_2" data-name="Слой 2" xmlns="http://www.w3.org/2000/svg" viewBox="0 0 20.96 20">
  <defs>
    <style>
      .cls-1 {
        fill: #e50055;
      }
    </style>
  </defs>
  <g id="Layer_1" data-name="Layer 1">
    <path class="cls-1" d="M10.48,0c-.24,0-.48,.13-.61,.38l-2.72,5.5c-.1,.2-.29,.34-.51,.37L.58,7.13c-.55,.08-.77,.76-.37,1.15l4.39,4.28c.16,.16,.23,.38,.19,.6l-1.04,6.05c-.07,.44,.27,.79,.67,.79,.1,0,.21-.02,.31-.08l5.43-2.86c.1-.05,.21-.08,.31-.08s.22,.03,.31,.08l5.43,2.86c.1,.05,.21,.08,.31,.08,.39,0,.74-.35,.67-.79l-1.04-6.05c-.04-.22,.04-.44,.19-.6l4.39-4.28c.4-.39,.18-1.07-.37-1.15l-6.07-.88c-.22-.03-.41-.17-.51-.37L11.09,.38c-.12-.25-.36-.38-.61-.38h0Z"/>
  </g>
</svg>