<?xml version="1.0" encoding="UTF-8"?>
<svg id="_Слой_2" data-name="Слой 2" xmlns="http://www.w3.org/2000/svg" viewBox="0 0 410.51 349.9">
  <defs>
    <style>
      .cls-1 {
        fill: #fff;
      }

      .cls-2 {
        fill: #5ec9de;
      }

      .cls-3 {
        fill: #ec2450;
      }

      .cls-4 {
        fill: #010101;
      }
    </style>
  </defs>
  <g id="Layer_1" data-name="Layer 1">
    <g>
      <path class="cls-3" d="M410.4,96.22c-1.03-25.89-11.76-47.48-30.14-65.08C359.45,11.23,334.59,.56,305.98,.08c-33.14-.56-58.18,1.36-90.39,25.48C183.38,1.44,158.33-.48,125.2,.08c-28.61,.48-53.47,11.15-74.28,31.07-18.39,17.6-29.11,39.19-30.14,65.08-.79,19.7,2.93,38.77,9.96,57.13,7.64,19.97,19.32,37.35,33.36,53.19,14.04,15.84,29.84,29.75,46.02,43.24,17.76,14.81,35.71,29.41,53.24,44.49,18.49,15.91,25.21,33.32,39.93,52.97,.66,.88,1.31,1.77,1.96,2.65,0,0,1.31-1.78,1.96-2.65,14.72-19.65,40.75-38.53,59.25-54.44,17.54-15.09,36.83-28.21,54.6-43.03,16.18-13.49,31.98-27.4,46.02-43.24,14.04-15.84,25.72-33.22,33.36-53.19,7.03-18.36,10.75-37.43,9.96-57.13Z"/>
      <path class="cls-2" d="M.1,96.22C1.14,70.34,11.86,48.75,30.25,31.15,51.05,11.23,75.92,.56,104.53,.08c33.14-.56,58.18,1.36,90.39,25.48C227.13,1.44,252.17-.48,285.31,.08c28.61,.48,53.47,11.15,74.28,31.07,18.39,17.6,29.11,39.19,30.14,65.08,.79,19.7-2.93,38.77-9.96,57.13-7.64,19.97-19.32,37.35-33.36,53.19-14.04,15.84-29.84,29.75-46.02,43.24-17.76,14.81-35.71,29.41-53.24,44.49-18.49,15.91-25.21,33.32-39.93,52.97-.66,.88-1.31,1.77-1.96,2.65,0,0-1.31-1.78-1.96-2.65-14.72-19.65-40.75-38.53-59.25-54.44-17.54-15.09-36.83-28.21-54.6-43.03-16.18-13.49-31.98-27.4-46.02-43.24-14.04-15.84-25.72-33.22-33.36-53.19C3.04,134.99-.68,115.93,.1,96.22Z"/>
      <path class="cls-4" d="M400.07,96.22c-1.03-25.89-11.76-47.48-30.14-65.08C349.12,11.23,324.25,.56,295.65,.08c-33.14-.56-58.18,1.36-90.39,25.48C173.05,1.44,148-.48,114.86,.08c-28.61,.48-53.47,11.15-74.28,31.07C22.2,48.75,11.47,70.34,10.44,96.22c-.79,19.7,2.93,38.77,9.96,57.13,7.64,19.97,19.32,37.35,33.36,53.19,14.04,15.84,29.84,29.75,46.02,43.24,17.76,14.81,35.71,29.41,53.24,44.49,18.49,15.91,35.55,33.32,50.27,52.97,.66,.88,1.31,1.77,1.96,2.65,0,0,1.31-1.78,1.96-2.65,14.72-19.65,31.77-37.06,50.27-52.97,17.54-15.09,35.48-29.68,53.24-44.49,16.18-13.49,31.98-27.4,46.02-43.24,14.04-15.84,25.72-33.22,33.36-53.19,7.03-18.36,10.75-37.43,9.96-57.13Z"/>
      <g>
        <path class="cls-2" d="M173.15,300.85c2.74,1.58,6.2,2.54,9.25,2.54,4.37,0,8.03-2.19,8.03-8.13v-5.74c-1.42,3.66-4.88,4.98-8.69,4.98-5.69,0-10.98-4.22-10.98-12.75s6.05-12.65,13.62-12.65c3.4,.05,6.66,.86,9.71,2.24v23.93c0,8.13-5.13,11.48-11.28,11.48-3.35,0-6.96-.86-10.21-2.69l.56-3.2Zm17.07-27.03c-2.08-.92-4.17-1.32-6.25-1.32-5.33,0-9.2,3.25-9.2,9.2s3.25,9.4,7.93,9.4c5.23,0,7.52-4.93,7.52-9.4v-7.88Z"/>
        <path class="cls-2" d="M203.79,258.98c1.27,0,2.49,.81,2.49,2.49s-1.22,2.49-2.44,2.54c-1.27,.05-2.59-.81-2.59-2.54s1.27-2.49,2.54-2.49Zm1.93,35.06h-3.96v-24.49h3.96v24.49Z"/>
        <path class="cls-2" d="M225.33,269.09c2.13,0,4.22,.61,5.89,1.83l-1.22,3.2c-1.57-1.02-3.2-1.47-5.08-1.47-3.51,0-6.76,2.49-6.76,6.5v14.89h-3.91v-18.39c0-2.24-.05-3.61-2.95-3.35l-.05-2.64c3.51-.71,6.5-.56,6.66,3.51,1.58-2.79,4.22-4.06,7.42-4.06Z"/>
        <path class="cls-2" d="M239.25,256.79v28.86c0,4.27,.66,5.79,3.76,5.79,.66,0,1.47-.1,2.39-.2l.15,2.95c-1.27,.2-2.39,.3-3.41,.3-4.93,0-6.91-2.54-6.91-8.84v-28.86h4.01Z"/>
      </g>
      <g>
        <circle class="cls-1" cx="195.42" cy="61.08" r="8.9"/>
        <path class="cls-1" d="M208.73,70.32c-4.04,1.31-9.07,2.52-14.57,3.41-4.35,.7-8.46,1.12-12.1,1.29v5.97h0c3.07,0,5.56,2.49,5.56,5.56v33.96c0,3.13-2.54,5.67-5.67,5.67h-.98v6.94h34.75v-6.96h-1.33c-3.13,0-5.67-2.54-5.67-5.67v-50.16Z"/>
        <path class="cls-1" d="M68.97,53.29l2.15,.66c.23,.07,.46,.11,.69,.11,.69,0,1.36-.3,1.81-.85,6.59-7.88,13.47-14.1,20.44-18.5,6.8-4.29,13-6.46,18.43-6.46,2.83,0,4.71,.63,5.57,1.88,.37,.54,1.59,3.18,1.59,14.62v47.06c0,18.49-1.47,25.41-2.7,27.96-1.63,3.38-4.67,5.46-9.29,6.36-1.11,.21-1.91,1.19-1.91,2.31v2.15c0,.64,.26,1.26,.73,1.7,.44,.42,1.02,.66,1.63,.66,.04,0,.07,0,.1,0,3.94-.16,8.07-.29,12.26-.37,4.16-.08,9.67-.12,16.84-.12,7.62,0,13.48,.04,17.92,.12,4.47,.08,8.86,.21,13.06,.37,.03,0,.06,0,.09,0,1.26,0,2.3-.99,2.36-2.26l.09-2.15c.05-1.15-.74-2.18-1.87-2.41-4.81-1.01-7.94-3.21-9.59-6.75-1.24-2.67-2.72-9.63-2.72-27.58V44.75c0-11.44,1.22-14.08,1.59-14.62,.86-1.25,2.76-1.88,5.66-1.88,5.37,0,11.56,2.18,18.38,6.46,7,4.4,13.9,10.62,20.48,18.5,.45,.55,1.12,.85,1.81,.85,.24,0,.48-.04,.72-.11l2.05-.66c1.2-.39,1.88-1.65,1.55-2.87l-8.4-30.69c-.28-1.02-1.21-1.74-2.27-1.74H78.44c-1.05,0-1.98,.7-2.27,1.71l-8.77,30.69c-.35,1.24,.35,2.53,1.57,2.9Z"/>
        <path class="cls-1" d="M153.7,248.5c-4.81-1.01-7.94-3.21-9.59-6.75-1.24-2.67-2.72-9.63-2.72-27.58v-47.06c0-11.44,1.22-14.08,1.59-14.62,.86-1.25,2.76-1.88,5.66-1.88,5.37,0,11.56,2.18,18.38,6.46,7,4.4,13.9,10.62,20.48,18.5,.45,.55,1.12,.85,1.81,.85h0s0,0,0,0c.24,0,.48-.04,.72-.11l2.05-.66c1.2-.39,1.88-1.65,1.55-2.87l-8.4-30.69c-.28-1.02-1.21-1.74-2.27-1.74H63.19c-1.05,0-1.98,.7-2.27,1.71l-8.77,30.69c-.35,1.24,.35,2.53,1.57,2.9l2.15,.66c.23,.07,.46,.11,.69,.11,0,0,0,0,0,0h0c.69,0,1.36-.3,1.81-.85,6.59-7.88,13.47-14.1,20.44-18.5,6.8-4.29,13-6.46,18.42-6.46,2.83,0,4.71,.63,5.57,1.88,.37,.54,1.59,3.18,1.59,14.62v47.06c0,18.49-1.47,25.41-2.7,27.96-1.63,3.38-4.67,5.46-9.29,6.36-1.11,.21-1.91,1.19-1.91,2.31v2.15c0,.64,.26,1.26,.73,1.7,.44,.42,1.02,.66,1.63,.66h0s.07,0,.1,0c3.94-.16,8.07-.29,12.26-.37,4.15-.08,9.66-.12,16.84-.12,7.62,0,13.48,.04,17.92,.12,4.47,.08,8.86,.21,13.06,.37,.03,0,.06,0,.09,0h0s0,0,0,0c1.26,0,2.3-.99,2.36-2.26l.09-2.15c.05-1.15-.74-2.18-1.87-2.41Z"/>
        <path class="cls-1" d="M269.77,124.47h-1.65c-3.89,0-7.03-3.15-7.03-7.03v-23.91c.31,.05,.62,.15,.91,.33,.62,.39,.91,.96,1.08,1.33,2.76,5.79,12.06,29.01,19.68,37.91h33.37v-7.41c-.04-.11-6.56-4.69-10.48-10.19-5.72-8.04-4-11.95-12.23-22.15-.34-.42-6.89-8.27-17.49-10.97l17.62-13.56c3.45-2.63,6.59-3.7,9.35-4.65l.19-.06c3.03-1.04,6.62-2.15,10.96-2.15h1.42v-9.82h-49.36v9.82h3.67c3.42,0,4.23,.25,4.36,.31,.42,.18,.71,.39,.71,.52,0,.73,0,2.94-4.63,6.63l-9.13,7.24V25.19c-5.02,1.63-11.25,3.12-18.08,4.23-5.39,.87-10.5,1.39-15.01,1.6v7.41h0c3.81,0,6.89,3.09,6.89,6.89V117.46c0,3.89-3.15,7.03-7.03,7.03h-1.21v8.61h43.12v-8.63Z"/>
        <path class="cls-1" d="M326.76,237.71c-5.72-8.04-4-11.95-12.23-22.15-.34-.42-6.89-8.27-17.49-10.97l17.62-13.56c3.45-2.63,6.59-3.7,9.35-4.65l.19-.06c3.03-1.04,6.62-2.15,10.96-2.15h1.42v-9.82h-49.36v9.82h3.67c3.42,0,4.23,.25,4.36,.31,.42,.18,.71,.39,.71,.52,0,.73,0,2.94-4.63,6.63l-9.13,7.24v-51.47c-5.02,1.63-11.25,3.12-18.08,4.23-5.39,.87-10.5,1.39-15.01,1.6v7.41h0c3.81,0,6.89,3.09,6.89,6.89v72.14c0,3.89-3.15,7.03-7.03,7.03h-1.21v8.61h43.12v-8.63h-1.65c-3.89,0-7.03-3.15-7.03-7.03v-23.91c.31,.05,.62,.15,.91,.33,.62,.39,.91,.96,1.08,1.33,2.76,5.79,12.06,29.01,19.68,37.91h33.37v-7.41c-.04-.11-6.56-4.69-10.48-10.19Z"/>
        <path class="cls-1" d="M226.25,182.6c-6.4-3.36-13.9-5.04-22.51-5.04s-15.69,1.72-22.14,5.15c-6.45,3.44-11.37,7.99-14.77,13.65-3.4,5.67-5.1,12.44-5.1,20.31,0,11.99,3.73,21.49,11.18,28.51,7.71,7.37,18.08,11.06,31.13,11.06s23.02-3.66,30.68-10.98c7.65-7.32,11.48-16.85,11.48-28.58,0-7.77-1.73-14.55-5.18-20.35-3.45-5.79-8.38-10.37-14.77-13.73Zm-11.26,56.1c-3.17,4.66-6.98,7-11.41,7-2.87,0-5.5-1.03-7.9-3.1-2.39-2.07-4.27-5.26-5.63-9.58-1.36-4.32-2.04-9.76-2.04-16.34s.69-11.64,2.08-15.77c1.38-4.13,3.34-7.26,5.86-9.39,2.52-2.13,5.21-3.19,8.08-3.19,4.58,0,8.35,2.4,11.29,7.18,2.95,4.79,4.42,11.94,4.42,21.45s-1.59,17.07-4.76,21.73Z"/>
      </g>
    </g>
  </g>
</svg>